<mxfile host="65bd71144e">
    <diagram id="yn6D_odh12bHCshazwg3" name="Page-1">
        <mxGraphModel dx="1028" dy="493" grid="1" gridSize="10" guides="1" tooltips="1" connect="1" arrows="1" fold="1" page="1" pageScale="1" pageWidth="850" pageHeight="1100" math="0" shadow="0">
            <root>
                <mxCell id="0"/>
                <mxCell id="1" parent="0"/>
                <mxCell id="24" value="" style="shape=image;verticalLabelPosition=bottom;labelBackgroundColor=#ffffff;verticalAlign=top;aspect=fixed;imageAspect=0;image=data:image/png,iVBORw0KGgoAAAANSUhEUgAAAQIAAAECCAYAAAAVT9lQAAAACXBIWXMAAAsTAAALEwEAmpwYAAAAGXRFWHRTb2Z0d2FyZQBBZG9iZSBJbWFnZVJlYWR5ccllPAAAG5ZJREFUeNrsXV1onFd6PvMjjSxLnilOSdoEPGENoSxUE9qL0k3xF1qa3BRNIVDJDmh8USil4PHV7s3iEb3ZO49hL3JTPLowyl3k7G7xXnlEs9BlWzIqdGkhuxmVbOOFhEqRZMvS/PS80jvJWJ7v/5zv93ngZGxn5vvO73Oe9z3vOSeztHTVEEJQAgAgnWhnmQTiQgQ1mcoxyGeZ8xoHoP3R/kZ+xAjr6/caUc/x8vI1ynRL5rUdg3yWY1KnJ3lE+6e7/bNQRQAAgAgAAAARAAAAIgAAAEQAAACIAAAAEAEAACACAABABAAAgAgAAAARAAAAIgAAAEQAAACIAAAAEAEAACACAABABAAAgAgAAAARAAAAIgAAAEQAAACIAAAAEAEAACACAABABAAAgAgAAAARAAAAIgAAAEQAAACIAAAAEAEAACACAABABAAAgAgAAAARAAAAIgAAAEQAAACIAAAAEAEAACACAAAcIrO0dLUhP2sydWOQ3wWZtmXaiXg+SzJdkmlL94uGw+HMUIgZ+TknU16m8/Kf8/w/Z+R/Z55v9cyo/nq5XG4qI8SR/POvM5nMIdo/Xu2vAGWZWnn+S5v+EoNMNzmfnYjns8Lk2lD50KOjo5eOj48v9/v9ihzwlweDwYKPjnqCc+fOnXw+efLkdyURHGSz2Y+yuVxnZmbmo3wut4/2j077awLlU4yIoLu+fq8d9RwvL1+jmaAT9bzKfNLHjop8fuc7f1aVH4ZMVZ5llGJ6evrkc29vjz5ITbzF6bsyrdHA+9nP/qWN9g+n/QPIqzFOBECEIAd/jQf+YshZWaEk87NJs1tUCAFQDxBBdAa/wTKNCKAYsexdkemhzON9yqMkhB20GIgAUDf4Szz46zpkvwaQQumSYpFksIEWTA6wfBgOAZRlIsdXV6bbMSGBEUitfCDz30JLQhEAHglAnHqSVxJQnBUuTxWmAhQB4FwB0Az6aUJIYNx30GYTBwARAGY+ADYBkkYA41gAGcA0AEzQHwxeYR+A6hWAbfF8FGhFhLvSQGRAiqeKlgcRAKcqwLhw4cL758+ff9HHQO+MpZMgGqd2uHw/kQLNzgYTBKUgnJGLpH5kPuvoBSCCVJsBPCsuDodDtwO/LdMGD/iun3zI34/Cb9vjPgqerats1+vCDfmuDQQegQjSSgJVJoGii8FPA781NnC1gcmFfBVNJoUaJx1KYYPegZUEEEHaVMCGi1k29Nh9JoUGJQ5lbir2LxT5mTX0kPgAqwb+VEDXAQnsyrQq0+/IQViLkmyWeWnNzs6+l8/nNxU/eoVDpgEogkSrAJrx7JYDezL9LQ22KJeHziAoFAptnsFJ3SwoejSpDpABFEEiSYA88B0bEtiVM+za1NTUz6NOAmdNBpmofHcUPfIKVAGIIIkkQMtiHwtrBxv5AMrz8/MtVgSxAy//XVf0OCwlggiSYwrQkpg43RxkBjqS6k32AcTeW85K5k1x6t/wg0VepQBABLE3Bch+tjogZJUkddLWzrk8hgIyqKEngQjiTAJVJgEz59k2q4BGUuuAYxzqIAIQQZr9AR8I8/V1OqmnkoYIOjYTbvp4xCWYByCCOJJAy8YfcFMOjlTtwZdlbTL5eQU2I0UciCP4hgC+3itg8hWylaspjqMnid8V3qIQydfQRC+DIogDCbQtSGArLaaAhSrY8eEvMNDLQARRJ4GysHYKEgkYfncFJshf4CUcucgrMABMg0iSwGh50EzurlFsALrJM2jI9NDD74hwO6g+KAKQQDJUQdujKoAiABGABBKGJogARAASgCqgkOttlz/D4aYgApBAArEBIgARgASAlsvvL6DKQARhk0DJhgTugwRcmwcdD+YBACKILAlQnEAtyPwkKPa+jSEEIogTCdgFC+0ERAANcRqmm5SbgUAEIIJYoGlBArR3oBYQCYwI4BYrEzrlqJGA+kWAEIgg8mrA7oDRqu47BejMPpnGCWAcN+JuIgRxJwMAIvAzAMnmv2Hxles6NxD1+v25417v2+I0FPeSiRr5a5X7F5h02iEcGAqHYQKQTyAJ0DLhXYuvrOk8XXjs7sPzFiaJoWo2ZVXREOHdttwVwdytCIAIXA0Kq5l+S+cyIfsCblncfbityiRxcb9CEERwBUMJRBAVEhhdP1a0mImrGt9NKsPqkFMlKxT8rjqnYgSqvothFH9klpau0ixWFu4jxcJAk/P53Iz61Vdffa/f779l9sPp6envS7X+kQ5/wP7eXlOqgG+N/m1qakoUZmaE/PfTSs5kfjU3P1/P53L7ft61v7//Tq/Xq8l3mZkdolAo3JydnXWjOEYKyVP77+3t1WSebFWJrIPflkqlJV3tHzFUuF7jcK8D5bM7IoJaTJh9geX1M7NqfzB4adDvv2baCbPZ38hB+InqzMgBOScHwcJZZSXfJ3Iyyf9HI2B/Kp8nNeD5whMuH9nhM3bfzcl3ZTMZN6qj7Gdml0RYHg4G9j4CmSeuB+XtH0GU2G+yFYMxdSICRh24tb5+rxH1HC8vXyP7vyHz2h6TyhU7v4DQEDQ09t7nzKv5+XkxNzcnPv/8c1+OQV4BoFnwNRc/q7tZEZF1etLuXtt/5Bdx8FXyzxiq2z+i/dTgfBoxGFON2PsIxmxzK1u5ppEErN7b80oCTADUQElywiHmIMKIu7PQKnKQsKo66MWBU3Ik0f/bIwk4nWHjhh0Mt+gitgFFfBPRio0UbWgggbawWTen25Clnf6Fx9cYCe1rUAQgAm0mgRVqGl7dEvb76jf5NmTgWXRRBSAC1bCT5jpMAloKWrT5mrZYhbgD+xJABEpBa+nC2om2LRTfqsPOwdsOvlpL01VoLkyZLQw1EIEyDIfDGQqosflaXeVgHHMO2mGND/UE4B8AEehEr99/zSqqjuxzDYOxIew31ZBJUE9pH3JyTHkbQw1EoGpmrkpJYHeqT03xO0n23nBCFik0CUYogghABEGRgJNVgjUN9xM68TVs87XhqYPDsw+2cW8kiEClPC8GKc35cJMFh3lLK8pQAyCCIGcdO3ne1OAgdDLAt3UecpIQ/wAcqCCCQOT5rlC8XMjqwsmpO42U9x8npgEUAYggEHne1OCoc2Jm7KZZDbBqsmub+yl2ooIIFHa0wNUAk48TT3gr5X3HiRqAWQAiUDIr2w1IHWrAqdxPOxHYhVLvgghABH5n5bJwthVXtRowHPoGthE7b6sINmAWgAiCmJXXNHS0msPvpXqm470XdoTZxPACEfjtZE6O6G4ofm9JON852E55v7Fzpm5BMYEI/MLJTLKpIVqNSKAIIlDiH4AaABH4ttGdnNOno6MZDr+3nWbb18GqStqDrEAEQfgG6Hx8Tdt9nZoF3ZT3mVqQJhuQMiJwqgZyudwDDe+uwCxQ0kZQAyAC/WqAUCgUHmh4dwVdQUkbQQ3EFJE4ztyxbyCT2Z+emnoUMhGkUhE4aKNNqAEogkDUQDab/Y2m90MRQA2ACEKeaSrC4Y0+uWz2CxBBJNXAmptr1gAQwSQ4PVDkvvBxkagNiugKlrCS/Gk+rxFEoGimKQtnUYSEDU15gBqwrh+S/FbhxDXsKQAR+EXNxXd1Sc8SuoElUVvN9vdxhDuIwG8nK7mQlFsROgAzTcRhdaPUttBzrRyQMkXgJrY/SrNOKkwJNgmsTiCqwiQAEaiAGwdTlIiglAISMIT1eRA3sbsQRKCio1WEs6PCCbsR63SVhJNAxYZ419J6jwOIIFw10I5YnVUSTAKji2TMTDby1cAvACJQ1tmqESICt3ZuMYlLjtwubQulRjcaGxgyIAJVcOMk1E4EHs2ORA0IumXahgQoaAjxAiAC5UTgFEH5B3Zdfr+WJBJ48uRJzYYEDDgHQQQq5WdZfiy6+ElQnc/texa4LLE3B4gEJBm8CBIAEURVDQThH/BDOI2YkwD5OdogAYCQWVq62mCbV/uge/z48d9ZdLznMF0orE3l890zkpzy2VWZr6Ojo8rx8fGiy589nTl37r1cNjvJbi5znbY81BHN0Je8lmVCnT2H416vfPT06ZL8Y2F6enpUB8+UrTAz08rnco8i1l+1tL8GeG7/EHAy9gNTBP3BoOSGBAhBdcSpqan/8vCzghxMRtyY/6nMs8w3bfQqmH0loiQAaMTohKL2+vo9rVJXSlG3W1V3P/xw43vj/7C8fO2EZWVe2xry97ZwHuT0ta9ApvrZvficz7KXOnVx25IZWpPOBmCfBs1Qz5wrcPHixZPPL7/8kj5oibAWVXNAZ/tryGdZ95hSlNdG0D4Ct/6BoDujVxnX4jX4KPsD6lyfVoeLbMEnAEWguyOWhMNTiMbQDoEIbnv43SX+bTWCBEAOwaZd3WezWYoYxLkMKUZQisDLIAk0eIWDZdY8/nxRDrpWhAigxPn52I4E8vn8T8+dO4czBUAEgcDw8JswJKofm24lImRAZkBX2J/8RMuDbxYKhX/FMACirAgCJwI+/OSOTzJo9/r9uRDblJZB7UK4N2Uq48BRIDAfgctbhM5K9TDQYOLy6rm/sr+398cXisVuRNt8VdZtA10fCFoReDELtsKqECagmp9nDIfD8/1e79ukDng5MAqgo8VeBwkAcSKCUHe5sWReVfAoctQ9lGTQoSW8EPcnkLlTwdIgEJppIOLjKDxLBg2Xx61bgQKPaGnytnzmNpdvlM6SnsqYhJMDRuELAEIlAq/+gbAVwRgZ1GQZhCIyGOESp0XN2YcvAIiMaeA1SCUyB2Dw0VxrMWpTWhF4FSQARIkIDI+/i5Qty2SwGpM2bUToDggAROBLEUQOPMO+yXY3AIAIXGAhSZXFTjcitzvoOgCIwAH8rJ9H2ctNcQYyURjvq+w72EU30taHytSPor67E0RgjXKSK47scPYdUDlvihCDoBKMlkwPZfo/SQY4QVkj8iAC/wpBnG71bfLMZeRyuXdFJvPn8s8Z4X75dFd4W3JNmhogRTm+c7IoAto2DyJQCyNtlcmksLG8fI0+X5B/N7hTk1/BSt52R55+CksW7s9uSCIaZ/9hMBzOZTMZ1EzMiAB23TcEgdBel76BSWQ4lEQgQASx8xF4XTGA8w1oTPpHvpEJiAsR+Nxcg9kTamDFhAjOo4bipQjKqFpApRpgJijt7u42I7S1G0QAIgCCVAMjDAYDMjlpa3cL8QUgAiBtauB5EGF0JRlUUW3RJQIAUK4GJoBiCz6Qv22iBqNJBLDhAJ1q4Cxu8ClQMBUSpAgQTAM14AXkO+hw8BYA0wBImRoYB5381AYZRIcIINGAINXAWb8ByCAiRLCAqgUCVgOTyAATEkwDIIVqAGSQJCJA5BjUgEJl2kI1QxEA6VQD46Cbquuo8XgSAeQc1IDKXai34TyMJxGg0ZKtBgwbNXBfnIap31f4WpgIMA2AGKkBUgI1PiSW9hHcVKQOFmAixI8IDDRNotWAVfRog498O4H8c5P7g4rDYRtYRYCPAIi+Gtjkgf8M+Kg3Q2QyX/h8Ny0pYoNSjIgAAUnJVAM1GzVQM/sfpBKm8vn/zOVyP/WZjZUQr6cHEXjoNGisdKmBVSd3Nl64cOEH8uO6xnykEpmlpasNZuKuqoce93p/JOjEWR/ISfbPPi8FSSnQ3YNRv+yCTJtLXuxaWXcLdCSXj3rbkvXmpn5GhNvVWSH9weCVQb//rcm9MLMvZ/t/d6gUT9pfPu8l+bzXvOYnn8//PJPJHEat/UMAtX9rdJx5WyhcXnl8cNDkI6WEj4b6t/n5+bN5anI+o37AaYXJteGx7jwTQaFQaM3Ozrqpn5Ecb+mqjF6/P7e/t/f+cDg0y/P3JRE4yfPX7Z/LZsWTJ0/ePj46+q4nwszlPpPq4odRa/8QcNL+IyLorq/fayuU9Spm7PKPf/zhM3nii0M6KvOqAzKf9LHjJZ9+625vb6/j5u5ImVeDPnXWKZ8gZHYC8Z0HD/656TCvZ9uf9hI8kp+3PWTrL37ykx+9E7X2D6GvGjp9BCpmbAQVJQDs67lh8r93/c6avMqw5uGnRZx3+A10EYEKRVBMaVhoOWHlsTI5auMxAz7IoObRHgcRaCYCVTa8kbLZk8p7KWHlMVsuvC8H8IbC1xnCfQQiiCAGiiB1RCCRtBDYloVJoLSsrCxqHlSnARrQRARunFU2WEyZGlhMUHnqFuqm4SRmwEO/I4XhdqMSiEDoDSjaVtSh0iLfGgkigZJFeSaGEYeoquCU1kwEqvwEiScCB6G3cQMN9GIY5g8rjVUQQXSIoA0icDx7NhNUHpLaZmcNrPIGorB8E5NwCTQQD0VQ5BkzqWhZzJ5xVQNmpmIghMeqwHFsAU4v0kgE7DBUddxUIokggQ5C8guYhZYriRnQpApKIAK9UGUeXEnabkQ2CVoJKk/Zwv5fU7iS5GYi2hZAooiA0EigSZAk+9TMQag8ZsAFNjDEo0EEKhuCHFD5hMye1YSZBFblCdok0DURgQh8yLOuULgnu9fvv5IQCW1lEuzGrDxWJs6m4jBit+hgiEdDEYwkoxIMB4OXj46OXop5nW8I81WCOzHsvFYmQS3MjOmIXpwoOy79YUmmjkwtEEEw5kH+8PCwFtfK5n35Zl51Uk6NmJWnJcxjBhpBDUQbbAZEhtSuK0QIL8zk5kAEz7My2Ydrqp7X7/ffiuNGEY6FsNqXH6Yt7aU81yxIwDaMOGKrQJ5VmBz4tTP1sPCnX3z2/kw+Owci0GgeaHqe7kFDASt3Lb5SH4u468akPP9kQWpVi98aMlEZN6Jyx4BXApYkUJnUFzPD4flCLgMimFDRHcUSbYGDV+JCAm2Lr9Aa+7ht2Y14eUbOwYLJVyYqG/odm0YPxemyKUnpKET0bXokgVE9POcf6U3nt3af9h+BCExsRsXPuxX10NAxEjBzDm7x6TpxwoaFn+MXk1YJuB46FqZRHM0CM3/P7i9LL/4APgJzVdAW6h037aheYTU8Pc7digRIQsfK18HOwSsW5flLE99IW0wOnurEkQikGqhb+Ecanz4ZPgIRBKsKilEkg4ODgzd6dD+BDQnEzDnYsuj8VJ6Fs+VhErhrVg8Blb9sN65dkgD5P8xOTd40tv8jljtJAyUCVgVrih+7ICLkPKSTeY6Ojv5RWEdB1iy24/r1ERgaylQT1teYV2V5ticQx10H/gbdsArj3nKzxMnOwZYFGcZ2y3wYV57VhfrouRXueGESADnDNoT9GfvXbaLtulHqIGOzuhlWz24ockAcI1Q0592OFFsuSKAkrIPBqlIN7IAInKuCHaEncIbIIBQzgTsczfCLDkigFZfOwSszViRAJxE3XBKHG9nuF3ZEsOGCBNoW6uKmJIG2iDFCuQSVg010RHxdYZ9BJaCBUmIl8lDY7yR0RAIKtuuWFJWN8nrLSlaLMyHEXO9NhQPVL6yk+poLs6AlzFdK1uLqFxhHmLv5qiyDVZ/OQw32seyUq2dnK5UEwCZO3WH+g1QCFQVla9moG7NIyJbL9tRmU3Pk4oJfs4D3D5jVxZYkgZpIAEK7Fp07kU7nCsUZdFUec0adi4Niujxb6iIBP2qp7KN8FYcmTvWss5MJxO27dR5DZzUJbDpRXkwCKxaKyBAJQTbMl3NjXNf4CpLrd5kQ6l7i23nw18j/IP/6qTgNinE663lVAl0/ZfZYTho4Hzs0cdomxF5TPGD9qAErZ2VNBQnE2TkYJdNg1IFaNiffqiIE8ubflu+iZa42D7a2iY1d4dnNEB5OEcpkMge5fP4TH+ZA22d9jMwWWxwdHVWOj48Nh+S2alUmWg2R9XtHuIsgJOJqKDbjrOr9jp1vIG0kEAki4A5EM67QTAbjpDB6zy0Nz9+amZn5YTaTedfHM/xG3N3g69WbJnH/ZTbL6hcvXnRKdGtOBqv8Tp1NDDf3NJAZt6HiqHO+Ycns3dtWCmRsdWAhTSQQGSIIgQx0ga7bqkkiqPisiw4rFz9nGhLJ0aDsjCmfkdJZcPmsNZd7Iqo2A2riOCRl6IcM+Mi02za+jR0TEqC62bCoc/LbVJNIAqH7CCaRgTg9pSduIC/6TZn/qsKwWRUHuhR5drzFaTEAEhj5Cwzh7pi6Ubh4xSMJ1GxMgptmJCNJwM4/ckcSgJFUEogcEYykpdDrQFQNmikqGu7zi8La9E2vuyN9kkHdBQGUxgKfihZk1pykAuhEIQsTkQj+uiSAukg4slHMFDukXhfRPpd+pAIMTTf70jPXQizbdb/k5oMMyKnbsVpa5NWcOvtTbrlRNHLwl9kh+LGFQjoheEkCLZECRPZ4cLaTSSYS20dtHzuZL40Ads812N4O8kq0bTEhTsAnGVQ4/sJNO9IApaXfuzwod37/5ZcvH+zvNzlmwYn/5BkSIALgOl2xIcFGEqIFY68IxjsRmwqvi2AOobTtWDK9SnkKYgstqwJDBHfE+R02czoaykLt+KZHlUd+jkU6xXowGCw4JIGvzRraOiwT+Vw+tSEBKn85bSQQaUVwVh3QgPibpaudbDYrhHuHl1+ZTB2jFcapvKyMiAw2hKabkTKZzG/lx5Lua8no+azy6kLP0u2JovmD37v4D+/+4td5lv9OFNUaq4CuSClidXNQNpPZKRaLjd3d3S53pqqmwbHLA28j5As6zppJTaF2eXVramqqOz093QnqbsLR7lPe1NRQWJ7dly8W3/v7rf/5E/HZ7o8cmkAnBJ/k1QDHk8HS0lVqDLKd4uAUaXI+v5auh4eHl4+Pj9+QkrEyHA4vy3Tew4x4INMnUm10crlcZ3Z21q80pkFbExru/KMLXuhuB1neN7yWVZbzo3w+/4DLObKhQ2n/Xr8/9+Tx43f6/f7bsjwvWn13bn5ePD08FLK9x8vzKyrLzLlzD/K53P5fHTx6PzsYTHxOP5/71eH0VOd/zxcf/PIw94nGYmlrfw2gfHZHRHDylxhkeoGZ3JTBZWeaGQoxc/Ipk6m6yGb3qR9KlXHyqTifI2fWls7KGAyHJUkIJSaEvDgt73iZD+VIOZSD5alM+6SoMqflHUeZP0NvfzrnkctUPCnH6bmP38jXfH7YHwwO5B+JuHe4PIfj33lhJnd5NjN4uScy+/1h5vB4ODw4Hmb2D44HO/LZvYCKEkj7K8KJCBiZBq319XuNqOd4efkaydeGzGs74vk0OJ9GDOr0pN3j0v5y1kf7a2j/rAAAIPUAEQAAACIAAABEAAAAiAAAABABAAAgAgAAQAQAAIAIAAAAEQAAACIAAABEAAAAiAAAABABAAAgAgAAQAQAAIAIAAAAEQAAACIAAABEAAAAiAAAABABAAAgAgAAQAQAAIAIAAAAEQAAACIAAABEAAAAiAAAABABAAAgAgAAQAQAAIAIAAAAEQAAACIAAABEAAAAiAAAABABAAAgAgAAQAQAADhEZmnpakN+GjK1Y5DfGuezG/F8lrlOWzGoU4M/0f7pbf82EYEx1hkAAEgf2v8vwADt4XjtkDObpgAAAABJRU5ErkJggg==;" parent="1" vertex="1">
                    <mxGeometry x="730" y="645" width="90" height="90" as="geometry"/>
                </mxCell>
                <mxCell id="41" value="&lt;span data-metadata=&quot;&lt;!--(figmeta)eyJmaWxlS2V5IjoiQ3drRUV0R1RSWjR2YzJYYW85WWVZZiIsInBhc3RlSUQiOjE1OTYzNDM1NDEsImRhdGFUeXBlIjoic2NlbmUifQo=(/figmeta)--&gt;&quot;&gt;&lt;/span&gt;&lt;span data-buffer=&quot;&lt;!--(figma)ZmlnLWtpd2kUAAAAWjcAALV9eZwkWV3nexGZlVVdfU3PfTDDfYMzPSc3kZmRldGVR3REZNb0OJKTlRlVlXReZGRWd40XIiIiIiIiIiIiIqIiIiIiIiIiIiKOgKjIIqLruq6767Isy7rsfn+/9+LI6h7cf5YP0/F7v/d7v3f8jvd7vxcZ9RVZD6OouxsGB9NQiJNnmk6j4weWFwj8r9Es251S1Wps2D6KsuXbXqZsMLXdKAM2fWejYdUA5fzgXM0GkGeg49vEa4VpmXPH33TcjmfXmha1LDSagVM51/GrzVat3Gm5G55VpvarGuyUmw0qr8Vlz654tl8F6ohfsht2B2i32jnbsr1zQK5nkZ7t1gh5tOxUKngeK9UcuxF0ih56L1k+je14Zmxnmi0P87BpZCesi4MI07wXsCAm0ur1sFxAebZV7jQbzFpwYctzAhqlbEz6obvXjUKQlVAVMC8Q1ZttBuXWYNwfjHe9xZBoGs3GfbbXRIVolrmeOCh5PBKVNlCi3Cy16hg3QFmyGm3LB2RseM2WC8CseFad6HLFZrNmW41O07U9K3CaDSDzbbsUND1AKzRHPAs1h9mu2rWa4/oErnkggmBZckc8e6NVs7yO26yd22Am6+iqUbbLWNCU7mhg30tDOubXnBIhjvvn6sUmacEJp4HOGow96QdOaZOW6gq/arl2Z8sJqh3d9lSp2WiAJw/wyhJpXLHWLG2idNWWU95g7bkavOo002vqdtmxAFxbdTaqNfxH1df5YKAme70GO1hsr2ZRpzdsWX7V6QToGaUb25bnWEUe/02BBh7BQKeE9UDp5phE6+4t/l53Gm4N5ntBeHGuJHPUP9uyPBu1Ao30IkqMrd5kezACsKBlgkKjaCbFcnOLxpm73HrmXcuzajVYBpS33vH09FaW0TW7QtiC3djolC2M3OLOV6kMG2hRYY0KFYe5HmG4WSvbtMTrxWE47tehYlhu1/L9TlDFWDbInESj6dXZiGXZ8jZtGqhRb9UCRxmRSXoDtSjCRlDMlZq1ZlLKszS4zYoPxWeINQ0tyk1IEuVV1SQurqVSOuI3K0GHeaC0XrW8clJi47U9W6nTMfveUq3lQ8goHK/yfE/4VtBKNP4k9wLgilqr7jSavhNQF6fc7mCs5bfqN2sOCUpgTcsOTAu90VCBkQmKnrweMDWAhIKsyDSAMxMciLTYc07d4pnlYe5nHAArbadsk3UXnBH8rN/rDkO1+nCUnh2UeOErDs1TQmLcW6AkZ9o7O2FPjzjnwE48uEkLKoRKUfaablqUlSasFpJslGFALRqgUbRKm8sokzS4xM5ppQn9cuDrgBYtFw4DT1lrbjGAIQRqDD40otYpWS65nFxagkp5JXZoeWJaDnuTWXc+mIzRJnZb6BnyxboClpius2mn2mbUwi75wWA2GKEUtwHvTtXWkpeNxWg7nLXGg3kEvp5FUxWuc69d8wFIjBrOniiN0mQczWephAuQPPCC6nlKsm6RJzcwDr3spl+CqweQq4BjuaNa5HWBqVf8+WxyPrSGg90xGiTMBPwbBAtANluBBg1FXOpOoZHxfDBdVg2ZeAzD8rzmFusbTcJURftsy6lht4CpA5nTOkVGrHajPJYPygcXkqBWsk6wkLq5zm0or2bKp1Fey5RvR/lIpnwHyuuZ8p0oH82U70L5WMnxStnej6vZnpkMaGXq2P48YEXRbts0AxlP3ChOJsOwO25Ow1hBcq2GslQsI5qRzwYs/VYx8CyGjXvZgFlfefGrk9ngwcl43h2iuXaBGdlCl3kVjDMt7DYVh0eYtm6Hs/kApke4pouqTNNiMwiadUBGfbKIwtJiFk1mWJ+yXbHg+1AhSl7Th6U5HmBpn7PJ9KB6KBmIhrgr18JU4AtLUHGUcy77vzweJacGaKVOHpWaFCBiBFKAVhP5cXGtDWOfzOqD2YwGkFgRSx1PyQA8EDwjfHpAKmyUu9Ge8idGCfsQUCJVcMk+R9lDzm1sACXOuDY9pd+mh+GWKSwy7YvTyWx+2IZMbM5w6QjZtKGIGIGtmfuXMSIxWaPWPZgs5huzQV8xySmzyqx4OkBDWZmZtnG783k4G6MKVI7LFgIfzb5asjwX84kXRoMHwTpZIh4Or0wyDplABjULZotxT6ufUXZ82t+Jp0D86vDKSH9+MAz9UM8dovP8pvaPgW2RhsgStEvpCkJQbLaNEm0sZmDX3aZncfiZi9lgMedhspKX7DcAZbxbwHF0e+eVGJM5VeGg78Pq8ggkNkpEUQwratZrdHfJ6qolNYpQMnIxgE1uUJosMKCZbrfycO2w7Fo4ptUKaOfKZVjlmdWZRTQf7Byg6mG5uFbJ7sAVqBhZjcBXQmP/CiRiYt+5z+4ETTgVXo8lBHQMMnXqLoJLlKgGNGry7iQakCyxfQClxymsIla5pcJwJtuakSvG1oLw3HKBFvopIZwxrA0slHxW41WHFdt0AujQ4Qdl2fJ4zYvYS/E0S7Umh1s5xIadOFBEOd9yEYzZHQ5QO16rETgckq/AQMoOBSYsu4JDMuhmej6OYBWWy9yFVUHvHWqKXQVlWW/i0NXhRTYUrCpMtKpS9AQ4pyoQBxBZXpU47FwBlYtFJSPCOYtnuFr2rA0811C3aZ+Lmx1Bsd1UYfw6YDWPKsvlaFKGsaB8LJh1x0oAag43YDdEFBt04L6xL9JsQSZgZhBI2wYoKzi54WngqIAQv+I1k0DWzKBiN57L4JTDzmcwicdecVt+VeE0s0KKiXmtpijFai1FJJyO0OlM4TSn9RQTczqaohSnYyki4XRcDRRiAlHM7MQSMuZ3cgmrWF6xhEu4nuKeNFYzvTKLi3lelUUqlldnUQnHa+B7nFKH6lC6FoEdjr9WAy6JDeg6xPBNhHop5nq7G8HelMSP48RcahWdEioEsY4LEvF2pmiQ31DhMlqQESVVOaJbwuRV2yXcinK5Sbngu57y16sbcDrYDxPEmiZNEEcUxCYAa1X6v76MDLbIdRw9hKzi/AL0Mb83mwyH5cFM+QoMWlvRN/HOWGH2nqotHM2c7D3swyPNQ9Tb97rYqJQHLIEDRTxckhstbBHSiJBjQGeAC0IOJwhbGDRKkyHiApmbiTUhd/GPsY1/zC7+yanQAY0voiQP8I/hAQXqFHEB/5h7+CfHnPz5ZIoGPYLFC4Scap8KAqPenc8GF4VcGd16K8pydOtteBijW0/jYY5uI2RudBsh86PbCLnidmfY7ZxxP0Q7Y3cx6Iv7M0zXhaFieVTud4eLEG3kguP6m4RRwSo1uqNQSHOnOxoMD0AvI9pIARhgMo96s8F0jpJJtO3ubNBFk8UonA16lcHuYoalxdapz68Cagd5ApA4+HIiCjB3s9zUn3Z7UOqlti6iuybkqV22xBFbH/kuw6BCwqUJZjnAVSJtwjCCHagzyzfbutSdRlDmtAnsj89+Eo9OXDBcG+cwGroJRCcpUfyM5BWBeaAw2Q2AKxn+brzu2WEhvsa/CLMR2gDg8fi8yBBOQuVAp9nUJCJ2dvCVsDvnBf476eJ4hipROu0yiR6FUXJ9wps0Gjx5gHjmdWprxXcaFGcWml65geeqVfGofq3cYGd0pNGq05DWEQ1TeucodkSa0rGyeh6nMBnPEzhN0vOkZXFkfkVJPU/haELPK31Vvsprc1LiajJMPK/xtzhheG3J36LndRAO4a8vlTivdIOvQp4bqw6nBG/S0cYjml6DxnczLQqet2B/I1E+shzwAfRRlZpF83h0fcOjDfwxPnQNz8ci1Kf+H1dBZIrn46vq+YSq6veJgSo/6ax6PtlVz6fQ8QXPp9YqRSo/reny8+lewM9vcVX7W93NBq3TbTW4DzxP40njvN0LalS+A08q32kVvTaed1nFNpXvxpPGfU9b8XlGGwPC85nF2hbJ51l4Et2z8SS651ibVZrHc0tn+Fj2vFKFDeH5JZfLVqnlEV0RWz2VS3Bu9CxXFH+7ggwDnhU8T+O5gefteFbRLfXn4En8z1TVfNDbBo2nVm2eIb1BeMkRSMNBIIFn84x79z14umfce4jP2TPuM27F0zvj3noHnn7tTJ3aBUghEn0LuxrJpU3hC55beNI47q1v1gl/rlHjwOu+RmszwPNbsQHQuO7H08fz29pYcDxf4PoB4Tt4Ev4Bb9Ojctdzq/Tc9lpFknvPR7iKZz9Q4wiDBh8cdiAmkt9uG3kqPPfaqn7QVvN+YXuT9eV82ws8PId4nsZz5PvwvEKM8aTyBM/b8ZzieQeeL8LzTjxneN6FZ4Tn3XjO8aR1WuD5DDz3fR8+W4gLeBK/i3gSvwM8id+DeBK/b8eT+H0HnsTvO/Ekft+FJ/H7bjyJ34ul758mht8jS20e4UsIIJbfSwDxfCkBxPT7CCCuLyOA2H4/AcT35QQQ4x8ggDi/AgAP9QcJIM6vJIA4/xABxPlVBBDnHyaAOL+aAOL8IwQQ59cQQJx/lADi/FoAPOYfI4A4v44A4vzjBBDn1xNAnH+CAOL8BgKI808SQJzfSABx/ikCiPObANxOnH+aAOL8ZgKI888QQJzfQgBx/lkCiPNbCSDOP0cAcX4bAcT55wkgzm8HcAdx/gUCiPM7CCDOv0gAcf4lAojzLxNAnN9JAHH+FQKI87sIIM6/SgBxfjeAO4nzrxFAnN9DAHH+dQKI83sJIM6/QQBxfh8BxPk3CSDO7yeAOP8WAcT5AwDuIs6/TQBx/iABxPl3CCDOHyKAOP8uAcT5wwQQ598jgDh/hADi/PsEEOePAribOP8BAcT5YwQQ5z8kgDh/nADi/EcEEOdPEECc/5gA4vxJAojznxBAnD8F4B7i/KcEEOeHCCDOf0YAcf40AcT5MwQQ588SQJz/nADi/DkCiPNfEECc/xIAu6i/IoA4f54A4vzXBBDnLxBAnP8dAcT5iwQQ578hgDh/iQDi/LcEEOcvy8NJG4RWc2zX4g4h4xDLoJiy3p1OKciRxs5sMqKwbD7Bv0ZxONkWUm4fzMNImFJli4Rh4vZqj8pjisgQf/W78y7TFoTZHvTDiTCMmCa6vTUbElFlMMTJtkTRpNV/IRIEQq7OaVCI86K9bn9yIQJo7A1295CB2EPch0iyH867gyGgXIi5RBRkIKLcR4YiRBoI8Mo8HHHeUFUV9gfbOHv2CF7ldL7qVt9iCuPI/98ue4iYZl3MbU2sbc+I5xg9o3SEByOMq1kAJ4Xs0UIgrDYmFGHOKQA39wfRYBvRlhQ5PPQtzHGRjxCJR6IvV8B7HO1MZiOxIwoDlsZLpFhlKNhD+DymoQO11h0DiUOFQ1WEOakwCPkQkUJsBXEFytkLh1PiyGyCMwhIMJj1iCoAHN3hFSzReLXgXibFsSnNp8JV8NLieDiavHBQAh8X+V6sZEGe2GdVeKkUp5Cb3R2McU6hHrcG/fke+r9yCVsNabWAvqpHPSFMFQ+Z4moKQeuQSBkqJoz8+fBADIXcAbY2GMeNIEPClAe7IUZn4oyAkgpcL4ocFbYUYR7Je5TAfKDmaZhd3OEG3V10LAls0NpAW2P74BSx6vxkb69LwXw4i0AhkxJ35JRpykZEcHM/nCFTGQZdSFG81JDmkNOXnN56ALLF/coQo4+w5cj87vBguhdhr5Er/eSOJMJOIwvbONydf9FiQub3BilPKjZtDAAkGPHqDiaTrM4rpVzb6Q6H20hsVVARiaE8sgd1m6Gz88XJRXB5jZTrKAH6giGPzpOcJ86eM302y4tjGh/2k/U9PpzsUn6cSYJJKZ57c2cnCufwH2JNnqhm+hJGbhv5xH4k4EEWygPoM5+5F9MhpM0je6iXQxgF2Js6lTwg5AVWE4iW6s4BMAlIRpSjkhX1cKZEqbAzmEXzZFhYmzzsJ1te2aB1FsZKbzIadTGwonJY6Qn0AaHEh1HBj+1gBVlg6OpS5t3+vjb5lXIiNHi9Gc7UmDLcXsKJvKiWItRtX180FKHfWBlG17szLJlerOwY1KGdhUstqdAI5xcmINeDH8MXdIcYZp/HGk/hUg0kN4/UORZAkhgicb+U/sFoezLU7CMuoF94fwXHTCJiYOAoTo7Hx9jDCtYBzgsiidlCA3gHMQwWsZwCh7AHx0Z4hI1wTO4SK6T7mmQ5y0UUViDLDdqiMI+DMR+4JbaVwc5Oczw88OBbYI9MbZZxqN4nvzZazGl27M0UX2OZLwraTgwrgpZ64Q5oyIPAeuNKqCV0f47eJ4up0wcBLQ9NoRu3ebskGqyq8/DVvGDOw9azw8Fgsbz/BoUfzh+eyIcK0gpRZ8CFSKhAB421ncEw3FTzirgSLLB96zlWu9iJkRchli7komUVIeSUuXhvzw8H2MVmByTQYOIvtimfsg0yQojvkmQ208kY1qY6KizGO0O6iqEUe5bj6iBqxVVhH2JcU6Muxe3r3QhGpCRm9mKs4iqni+3hINoDM+qXRhtMgrA7qqWjo06Mw52YDmIcssgmJk0q4M9p1qmqEavmjn8BI4XyaGLSUGzES0NYVqLL822f/n/iDLvvDv2MQOImirW6vBfGKocEV9FIsPFxSMBeFdZsznADvqD4IZfGBnk8kthgJZrOwm4fFIVob3IBa42ophhiBftkeiBfDShoYBfnjHcoNOP+AiH7C2WVaGy42PonVFEO9we9+EowTmbSaZevLWUJ+QfOyBiMQ36T8mAowzCpoRdHEDB93bhU2upwhCsPdYI9ggoI9qG32n1hNpi604c8BjsDOFsoLlopnh9GYNTEGmIfdLXXDoiBWE3ulwRS2nH+WxKc1BhUirPgJpKwmEdMmdPFhDivETE9bmcbLT7pF/QAithld+E0xpA59BkeEaNBL8ms6R4IKWV1d0PZdf0SgLyEgZpD0hKZDKfciV9RuZTcgqJhKyItM4ztBM1cPo6lTFGlWKEaXcSvvIZMJfINq41EGucKBRL8+h0b6W9x9s6gJ73wxgSmzvTzHVrORlA8m/uIhWGkEZxPtNjZQSoYxjugOI47gH0gEo5PHd8hzGh/lyyeoysIEUWcOkg/H4I+o9RczGk/p2AL9XA2WFNEMOT9US6AojKZ9WB99EYBPMj5COhV7BzWdjQZLuah3j/hbvQA2xu6B2E4lU7DtnVG3aptWed8ALLG0RTdKWMWcxr2XfC3iAGFAd+ZmJs5Xox8GCoWLxIIV7Rx4kwQKaxPqotAYHcBdzTTpUJPr/3qlLwULqzvEWsb8MAQGsec6EQmrGJ3b7pwJiC4APPF8vIbgKsCjmEpZFF7PFwKQgSfwIAGT8lipUD0BgYeyCx7zU3CGPpdOtOuVNSrFDnk4ZoeQXl9d74C1wE3zfwye4vqS7nGeNPUG0q8HREBRIJJkogx+ogwukkEWcS2irKRblX6/gO+CsqJpQKC9YxkgyngCrizVbVhP1WnVu40Kx1VjVQ2LtTU64yYIWzrnK6hhoY16yWjQEiLRbTGu1hFnPjgNDNFY4AL3pkX+1dT+ekaolK0XcwGGKHsD6LpsHvAWrtO8QgXWUkxfne4wPFF9zblAlYSzRCr4OyABufVRF2u88JhF2H1nmqQmzJSNRjhjAjTAQizYVEDNAdRORyGiMKhhLn6YjgfUO/hrDIIh/22EgUE1IPmY+2hDDJ7MYTbIEyQ4rR6l46ukHCsH/o6nNwjHob2gaZyeYBysdfLJzzscX9K5zrMNNQgbS/oCTHKNJbvA7gBUp39E+wmaQwAdjt0qRUGnCFX5oZmIFG0tLg+IKrHNZNTLuMGD9eScEasrsj4xih11xzf1Kum9YEaHLqJgCQu/wKXmBpaQg1Jw51AUdGNXSs2t5R7gM1YevZSBx31yX6od87JsL/JMkWAC4WvJMpsZGirA5zXZwcO0gRoEk0WcFy8WH1aLFUuHQo6tgb93RCGgqFDlAbi+pje7g9wMKPe5XwARZl3R1MnmtxzF7KqGAdVY+rsAIyyTW9ZY+hiCxfzdrFpeTQpCes8r0hMq+ZWKaFMd7KwJRuQ5Jcg9bu4HLDjqDOGOhqfif0SnxnUKfnO6V43CsWKMBhQyLum8ATx5R7SPpmiIrh7Tt0fEbzhK9Q94y6bVZ6eCvWMQeSqAJBCYaj9OyWCJQSiU5bkuvigMUzXmVfla1K8OIvUiy++LuVPaPv7HeXDoKsFcZsGVX/hIPInO3NtZj5VodN3SaQBJuPWtI9zgR7IrwIHaQ9jmp9CWW1GMeZnZERQgPkhp4csLhfLS8P/ndiDAv5FiVlexn1+QSJhm6lKffHnJTK4h/zph+DG9nAiokyMGhymeT+iT43OjJEr3hJXkLGk6J+P0XrzTCrenlRwsJpW/EJcQftnin5HjM6MBzu3Ggbqf1NGjOwDSSSYq/iElg/hFGFc88eZGhow4T6ZwalBEfZPMlgaEeE+lQmO3C4sK8LlgfxdedkRFhNSjPLDLF1IfwOYKYT7Nxh2XEQQi/TF/KBNXr4560Oi4i8N+c+x0HgfSaX2HikeBDfGLiv3twNKGmSPUN+RrWiDv5L1dyl04joySvNeiXxRxPTLGvdquYjPSeCe7eStSKLBEbUepvrL8VEMy0RW+tm4zGL+cwpJ1Cg22cY+hxUrncak/iKmC5Mtah32oFJ9peVG/5pyoUUthzuR+IAhX4EtLYPGUkbivYb8QUNPkCb8ZilelBaVNZMoKDXgJ3g6Zn0nnAIdunCiUBU8gR9e7trCvrk7HqEUifcb8pU4hiDjas3C4mIbwqId+FeT05tPR0DcdMivySUUToXvl/Lr7Cs5jnuTFJO4oIY4jRvUwv1wKPLidzlxqWPGq2NYETvwot3dWXe6R44Ue9qauOYQShGeSbDx2wpr4trDOEW6OYcZWUh2Z9+XfaJ45GXQqkGQ1LSh9JS5Ek8Wj7oEqYhbhC9hVxDXiEfHsKpqUzGTKrtOPGYZo8i2htiWdY7vheKJaUlV308r1MB+gSTwk2JYVX0bsyOhv1qKJ8cFVfcCIuUMyxi3IaPRZFyj49ACZ01I9ruXarEBX5wvuogEU4oXw1YSkvIABhbSkLHlZKm+J0ul9iFamizJS7Ik8B2U/Qb6e7NofwhdCvv3hbMJql6arWroV0rU6yxjXJxeWqnFLabI0l9ai2yZiopmuGPNVJfodZM5EvkZXLLN7OP2FTsknE3M/IW4k2TKxMQ/Doou5qPe1r9BfBgXQGOY/O5ZynBiIn8aI2pYGZT/zKCFbkXhrMbnsJhVARdz88kugvR+c9wM9KslkXhQ/nGCR1owW/FJmWSUxdcMXJKRIROvrxvi02xgPCNCRbgbli/lrouD/iDt9McZF6jEN6GeLV6PEUfVbt8LagHqMOa3Zo6FKxpUGvZM5HrOs58oKEihn5Ve7qxqUFU8Gy2THM5aUlCVz4ngAxAVr9NToZ6Ho3Ry84O8vS6oyuf3oTFwMhDQGHn4Y5miIrBGCAAxtpP0VKgygU7UVOdu1J1aQiiiCuE4onmJIX47s5021VwwrSsvQaqmG7Dr7PkKtzppWZFUI97s9dXMmrghW1YkDYViVyMeKR6RKSqCswoD9RWPFjcnBVXpqTL/AOGx4pa0pKr9HUQAaWDw+LSo6u9TDRSKKJ6QRSiabw05BMG+JeVTNKxqOunClHQq4PQhlCLcoX43wskonCNu/ZyUt2cRimZX9RwjieqOZZSi26P7B5gZ1HIyrYU78GfpqmOJf0RmCTxa6EMUr0kpipP5fDK6DJcfPUxzOUavTYnSmgFtW1MoOwwUOvdjh2mCCfZn1KYkr5O0FSMmhU1G8M6YNZafLe3H6ebA2j6U/3mJsT2hSADzq/KuD9xPa5wabYJ+s0bTFBPkz2gkzynBvkVjIVyE01B0Mpm3aSS6UkqLaf+8xqmuEvTbNZq6SpC/oJHcVYJ9h8b6LF+FjpYX5ReNPewtaptO1mQubhY3XQ6vVMON6IV3cjKiKOCCdUFVvpDLNC84aIzhfLasSIaMcrt9cvIgGWXLigQdAlWCJOB62EhFRVxk5JmF+kFAVRxwWdWWxackF6vJsDVDdPCnqgoumiOMtOIhVYEjM2KsM+LPVFGFCSh/WpVd7EPYoP3Bg9TqjPi7JTT3Tyf0CEP6e1WVHbiqKot/r6v2BsO+broxm9CLsv+gavSwWITA/oclrFICoP9RoZkN8/fD4Q4W558UPt5p0UTUxA/hLAOkhxBxFoX3kegvQug/rND8k4WG+D1V0mPWkkJPHzFGgzEmjUOoKX4f6ZiLceGjBtRBXwTQIZ/j4B8k81I5eZ/yZUnFK9OKIvrZTb0WHNkPyZQVn8I/KMVPZHABWuGC4Q0ZVDm9a/hJGXaTF8Xb4o0ZKhcbejjbD31ODWLSv444nRM2qGR6F2edFEW/vVgXv5GOVV8sfEQiPofqx3n5AFXCE7+V6SpAMmWyIJl9IEtZ76KA/9jD/LZEIa7JzOCDlJZAbpHL2DMhqGGXEtUfynTg700Ww74PlZlb/OoFuYw/SYfqpKwj8Q+G/FJaxaLACnE+SPyLIf6nVOlCCmmhrvITuryUU/wHKf8qXhs6SYOH+GeJ/FeCs3G6Bea/pZgaZsqHYPFVKb6S4rk1NlLsqv89xaK9wn01xZVgthAWDzUS/0XK/53WUdiUZOS+IsX/kTjCHvql9FHxXxW2BclrI14T/wMrzIe5y9zzvk2Kbzx8dRtGgyWFyYmHjDHU+dDt81slBtkDHsn03vkaNp8FpV4/bYjvNYaIIKGC+4PwAtO+2BSvM3hwOjBEuCnFG+LUYglTh0OOkl3iJxEf9sOJC2XYhtGIlxnil8hOR1Nm9w1D/LJxgTN9dMuNkyolFcSrDPEjGXRJ/b6wIF6jkWU1VdzJzmdh/PPDVxriR3V9qdvDecECwwhrjlO1eK2uccbTxTxJsH/cED+lK2ifRToZtvMmjalO9uFGWBNeYYifxQXrFuN9ON/ztMCY3s9p2no47/ZpQp8wMEWFs/dpJcTHDPn9GuNi34bvPqiH44Vypw8Z8gcMlpY3uRD7vEi80RDvUWj4l8VovFTz66oGDZRuRNi1kQ1gpCLfon2A0b+BZBhsCmcqe7wYVUj/cNT4rCH+l7JjVJQx7Ljic4b4HqQa4ECx2EcYUPvYc7v8E8IxNAqzPp6WVHWRZKscoj2mcZCrOHEJUhGXQs6oxaqiL7SuuBSryO0IhufAfGb8ogUs4bpljCKrjQaYT22AB0iux0OXVHV9TtYF53IeTgQEN2bLiqS5DRVY+tHt48VjD+MU6b3QDGhBNqRAqPG4S7GK/BzOeX2kNPlXquhPPF089RBKET6gFsHHyRK4CLGAfNoyStHBRpBtYCFEtJc9Uzx9GaPItmF1cOiU/YsQBMhvyZQVRU+9QkM6gF1H3JoWVX1/h5xIHWcenPFZhhBVdAlSEcMWue9JBTKQgo6icVER7Ku5FLHqSi/i9qC+QGkhOJPPSvkKiZVj3SQtQN2rZMS7X/qjonvFT8NjUXzsjyaTOe72Sahv1nQ4DUe423gAflH1GNDiRLgAJQAMf0UTQlCQU48z3VhTcZ94N9gmOIweTH5N4jIXSUaKVGbhuDwgj0a38O/RXBJ38kWJdFdXX7d9SYrfi32ySrMRusYSaGuPnMe2PEZbpENQZOf/SSl+n5Now0M3+h+V+L+uoE1uDsYxAUb5B3FduroOrSJmQgQfk/j/JRRWem/+CSn+kAmgHHyDc7/4DK9FF/vhzF9MaR11wp+icAsbHwuA/P/nVdBWAk90iXUjeZwRf50yiDSHh2HwBXk+PECeZHcXK/tVAyu5P0HUYpMLdfdmyJlhvf9W0kjJo+Mov1cMdyYzRDdIw9AE75f/Uad7a9iyIvFlKf+TnEPclFyhlRefN8R/hkAw0L0mksGwUwwUu+QEfhE5JsAYyPdhx4vmafD4ciMcbYd9ZvCvBjYmZIz26mF/oF4w/LApXm1AKSBnkjKGpzUJO9iPGdFgNB0ixo9fgXG743BI032jsTcfcYbw86Z4p0GpGA9+RnzBFL9idHuYJCdSat1tpETXxbuMfSIBhjt9yBTvTjAl+JrFCPOhQG2KHVL8WlJHp5nigY/tCTWvN5BJjmsIh0p4BVO+L4tFpPtuKX4zQXkhDpPQYKWCJlLBcQ0NhRP+sFlT/JaBkGHc78YaST2+1RB/oNHx/kjodxjYE0cDZGKJ0Mdy4XT8RVP8IXbYzN0TlunjBhYaWzbC6W9I8UfYmRBsYxPdoQT835viM0YbypoGF4bZhQecoojGcoTG3dqEfrGHS1gciImlWSespYxCrLnqLQ/hWi2f7vpwAbxBHwwgfCdGGnX1A2mz1dBQTpNRsZNg8/yVpkrT21KXjCtcLlqlTY0oMIJvmlexRyMiyMQYxgqmhTPdALsfpVZgUmQmKSL7WnR3xjdCqhJiw8xywPmZJgqbH0RN1UyVV1S/Ze2XlgIo3MyS4iF+p3tB2C5bM0Ajc9VOEjQkzHI2gORfbUi5XGmj5gCsYM/Q3PTiv51RG5BleLwWPA7V2qgCE5OCVb7bxyDAKqUhG0g0UVG8zhBmewkjrqs7vu/wD/1EqenRt2A8q+y06LUISV8I2vDog1f0w3tFZaRIp1G2+YsDJu6/m5t2Zyv+NkIOF++lzUyrvEK4Vpk+ixC/QEVfjspg1ZsFhWVk/FbB6jI6ee1gre34TrFGynWEXljhjxehsL6F+1r68d3R5IsNx5KvIlFXPIjO4TkfX6bh3i8hOpESqXFcntfJS8guz+6KYtMrA0EdJkt4SiN1ywR/pcZzjwn2Ko1VHSToq/lTAo2gQz8+tb3Asam/a9RSlpotem8tI6VrY+Ugx5d4xVQN35BRwyyJjXroYqJtwMI+4CQThSRqoO4XRkBFBOYlDsOzvjDt503o52HpbBBRZ7iuvV+kb5HAfpab0G4F8gzbt1zCVtPYIEhZRkDCgRgWu2VXdwCyDKu3gdUl9TYqUzZTXUEjU6QOzjO8SQhDfwZCxB8l08yye0Da2S8lnWXqbVSmnRESu2TcU0wHj0knEAxBzqnjt4MCBwN4t0YsEHOOlAaOCthA3mWI3D7uXbjwbkPkR4to0OPSewyxolgHCbl6tQTJyfEuUmrwPoqgHXMwEKDMsfnCRaa19YQlXOlkvIsxYHARBjUPwK0egdTAbVt6y4qbXGHkxxivcllg1Q930A7K9OBktD0IK/rnCw01VbOXbd5IGr4P08u+HZUvXZ5O5FKXIrIuRdI7j55Thtfr+PxJug6GAWk6jartOUGHXqHr+PSzcFVhLvWQXhdj7vEUYCHk/T8IwSwRl2nWq0q4YzUvnFOhUN1hO25hYkdK79vWRQ63t2lzh9rmWewfgvSyMy9MZ/SmAeIx5hXh3k2sLnXPeOwudLZTMIyZQkVVwGUpv+SjSlCipcYB9Ulvx/KPa3kJ8ZDxu6lYLjigRsnu0AujQCy3dg+NDXoCMxjv6uK6lAMdK9Lb0xr7EUMaTga9zAQ85jSmjxqCgmgs1TchDogS0mjW3WZD7W8C40UUQx89o/FKFSBw5I2tTX0ZRX/wRPCLu3hKmnbHLkMt1CtnhhXA7VbtMjQEJPSBF7+jPntJ1dhDW3DK1FMri8+pzpaTMsLUX5wRgddqlKzABij5m3r69Sz9bljqCJbeNVRwGwcLaA6jdPqloVTN3OISiQPn9SQZo5amYJX029vCtykaUF9ZTOVL37HSy2EysuPbNWyFXKvjQkB5DJVWSsdb2c6Q6MYpdjKjQwhU20BcxwCGPodGIpYCqKeYbUeDhNlMNUrPJttmAAqexidhP4Me88wp7sglGDIfcde4LmYcamE5gbpBhg0UcFe2AySsBdvfUi5QnAzOubZf8hz+rboouSQgqX/CbZR82nrNM1bbSmhy1aBOJpI/4/N6rnBcdZZQBfdcUGXk6gYFw2s+o4/4Ww6HTuubTXoTD9BRr+UT5ljR4o8RHEdgTp8bYqM74VB8ijSBncltwZHVSLVkXFmGhsSV8Op4sCe0cPimLx497CtMEMxUI7EmypWRhRoBPEUNh0RiLIzcECC0DNy2F0M4IRbAF+HyBjgV4vRLKx2/28K/12oscKKcoZRTnMYqojVWhwC59ZdgypdpbfTj/Ed3iIBefBlSXkbRnGG2f4/NoD+5MMYRi17EwekC/jIv8tCICKMNx72DFLtCE8BCzOY6bZIXBXqzbxbx2Jo7NdRDO1aL6fREjiMytmHRaqQFmYTNiAI6NfWFA5P4qHZ5lh9wQreJaWTCJcYYHD6cbTXZ/s2qbaEaUK68NGUQ1vj3/8Ljz2jI5Wq9IvCJdfVRLJAI+94ETn+AQZRxtsTIDWiDkVh4NP5HCFNVIJtvyOW3kJP2NtMahUHKJwAadyyQZYJaukyBiiQVmbsUE248SHMhCFsuSYXkkaKCLKkBRRZIKaHdyojOtlVk24BCuZCMra0j1YDDI5gBpvcubHqlyRgHbDDpDi0eBXYk2dUQppqujsVIYdyQdkxBBRQfy5TiApDimstIMdl5LV1y5VIaGq+aQmZel70sop9B0EUK6pmNS78qiDHq6muVjtQ4jV4mR7Z2aa7tSNohdkrct2Ru2tbVeCu456B6sSaPwmBnXUWgreUBcWzOqxqvMS/J8WVcm5yH+JgpTrCI9GK+3BAnwU5376H3ucpnxCNGVhwOaNyaDZ1xI7yA8B6oU8usxT8Z4splFLsTHJCv4s7884NpMKElxvpenaCKB9aIo9c1cQ2WUKlBhGby2qSYasU/G/K6Q0NVq5AZ6/WHCJxYuffDJAai5NcNiVL5GDdltV2+DcNxX29pSExlXthM347H3q3toowbqV4If7Jpn4vf6YYj2mxgZ8bZr4Eje63G7kLeW2ze20GwA9hw/TvwMLHPBKUqnRtRym2m1sZpC9r9IpGXUGvG6r6+Ai9QxaDVS1WGseBf8PKrjRC4gR2ax2iYXJYjVQ77dInn9EFqJKjiQYI0bWwGKr1oHNUso1mvxZAxH8whYVDN41+yq4rcBbrhgejye3wFBGglJEYBBoj6QkLvjLB9V7sR/TpldQfqD+FmcWvT2WQfSkf57CO4idgdQOq0L6G8jnXIyOEoxKWv7QxzEU+AzkEQoa8zR4RCTAvC5WnWsGgwsOQe0Vhd8ExkPEXabOOBmMsd5y47m/xlZrOyTLmlV+nwcsRrttrGcCgrDYff6473uxElfuMXZ2BsUyT+h3rY0FyDy+WQtJzTcKrRhlKBXJ2+hUqsVDrtqUKqemZam/S6PJ8HhJFB+9hJYCKTMf1AfPswx9IQV41C0jkYJ8Mpmwna+4dMjy91Qa/vIxLPZAQQKDQYAZ/yiULybzQB6R7k3mQeTSdzXTQinBg0HJta0ljJLT9RJU31zRhAosrOndgTTMa6LqebFeEXpzgAzZ0+vRucx1pHsBJkJhH6YC2Nbex3fg85Sork0Z3uPRKvNBGJJQ4n2fSFMNIErPBsHGo5hysDevsLcZSL1ts4T8c/6ChMsMlwZ68yhRyHF5KCcckYyzRGE1A8G2Awl0FUVZTOuBFeODQFTKqfDO7VJiLu+HA2J19NNxnEteCkaOQV9ODyEZW4F3m423h4/hIfjC6K+WTQOf5liniDKfJk3CWloYYZLaufVlgtJH7/swHV0mUzQNmPWxxqDZe5Lf+N9str7/KQhEnfq3JwymOJWcj1KRBHrnrdCVTBWG66GR7wHSTGMGUumBi9K7KLtac37eA49e+CUDB9WkRklehNfphntLQyctiN5rFyKO7iNRD+pWgfbHBT8UYT7jjDPgf1hNEl/M3tZX2JVdZBQH8RZmxETJ8YabIq6tc10MhLu6YRXWagfjIizVQPIhJvNuXyINl3IJ+VeiHcDMTcKrSWiiX0dQWNkvVCvtKUBdThtK1+kYd0A8QKZ4sFh2OEzwtU2WhTnJoeynGBwJEZrk6Rw3JoG5BVXDfOt8PuHCKFndqUdeAEgigia5uUZAsbBzqlARk3RegZY8ZywgkmTDFSQwcMSIrhYki8AKZI/l3FgXly2uzcXwKrG2GcoXipKQqJ0uLKcHWyjY72MU9RkGv9EBtK2FA8j8BmYcbsgSPxMlOuqyWOvW4kXm7S50KWfSQuakx5DF3NMNp1cZxlFtNUlcHCEk4s4d3L+Ek0v5+iQ00Ssy/TysL1XTFFKVUapH9NeaqXkdJbTXHl/pI83oaAEOa5NUOWAGt3NX3ip4LYzIe0oURSXJNxHbELwu0MAsI5BKxdxutMcR0V/WQVX2+K6xOhWHz28CGoG3YmvUXUHAcg1m2luHEvkf/bTXGTjxXG8bs73Tu7CDnhG+mIkLwGFgCR4BRmCqMhhB5SMiNDbg8hQD7Oa3OCgqjOvFCtI4iUTqhog0anE7yrg8jtQlKkSHIOvBeOushCjndVnhYiQSQEPBfNOSASakHk0FGRcgJ5neMt4AwNeXpQGKxn3wc2ADXmMppy40IEVIs+1IAgrJ4miWGC6RDQgCQHInRODQBBtb85Z+w9/nyCW3xikeyeeoZyyXCgyagrzibdfg88kT1fqu4tL9u74FPm6Gom3g1/N40Zi/ea8CWxvrpZtEqoi/fA2OpgjKkI4xaiInvOdmVAbRng6z0tVPpdUg5Loa0+Eu8wZZ7FK14s5QpBxW4EC1FO9GbKNneH2lYL3V4PHYicWI0or+Enub61uBzQQJ4rjsTlEq78MXRGP1+s829XMai8OMqgVicc7riIu1bac8DwuOrY7R4MsZBAnIiWlJivNEx5MjO1RF/faYordsCprVKTmMYp5u5AC6D1cJIHzcU8GvRDe9wbws/g7EmeGaK9kgldLCr86P3iqkFUwnkZVjyEQx+2xv2JP8eyiveb8hpGeWEGde12LPVIvM+U183CnjJYP3zRIoTF65RUQVzP/RQRV/X2fP5ZbgUDVlO/getsHA2RTaN1e7EhbpxOkDw6GPcsVhvkx8RNya/dcCcQcmBIn9Z5BKKg+QG9beGoTH8NQ8IMbikPdnZKews6U61nVg0OWaq9fYUSX/wz8waqoSjw9xxm8FLkFKzlnVclJ2JXCkGhh5UecY8s/ikC1jTYw+oRCl0UtnHEp+WHLlQHcL6z3t4BupCr00txa5cjjud3ZHp5/DrNL1YX3FhhCvEMwVJ5MFJxzFGvQyQ+gN2bikXqj8hy2wS53ENjmUN+ejnsihe/psKSEob+JnW5gwd/P1/Ef2RFJqRlUlIDx1TAVXWgkrO4kvl8CF4hm2VgJDKDuAyxrQaYiUqtaQV4Styaq3tXw6o5/LeXVLocAH1pwbNxM88p4Hydk/0r2UunQtyJF6rXT9LOVr55Z0kfims+y3Ul5mqNVZ4Xm8DD3AGtC2MHEtMlxJBIJnYjypnlONZQ+BeIfHhxOoPrge4r1Cfg/kb65kZ8isINfifJUdcv4p3Io9pJkySzJK6gm//k4kH/TQ9VpC/80xfh1ZfzVW6VL0P0HxgqOyRJQDn7bMuq0UrnG01czFAJhRVcxdBfLOIlKySFDm4uYpLVDY/+6BYu6VGB8lq2nCU8oj7lu85LfBS94HFMLb5TodEcR6uG+qMOJzDeTh1XwZ1as7nJd0sn06lDz8KkkKzDxxHmpmhrtrugnAlnpRK9q8ery8kaSEql5kGT6iZosP0xPhKfNNOLfdIjhOhcQ/k42QeCFesjaI5+l7Xto9j74qY+LpxgZGg9IL+TXFxi18zeUyb0xKRN/VBOFbPgreFzh8aiCGzUUvQzAn9oKpjvZ2h4ZurGBvej8GEIpfTksEFJumahN8lETX/EQlge7uBqpBKS/kyMUiOjYbXxMC39zZ1clT6sma+exr8r1dvxb6F6B/5drdLHNNeqd+HfI1WKyEly60n6/WiliYw8Qcegs9BNH+BxojlRJexJmDYeVyxl70/xZemVLfr3qrrdaOF5dY2+LnxNmXDXlgP8e12ZlOv6irPRYh43ACpZrp7AjXV1c3ATFB6PR9Cl9c02vSVzCzSwyeb/SL9u8YdeHkWjejRS/MTnMWfxz2PLFWr9OKtYpGE+Xl9dPcGjnp/o0QSepK/Cn0x/TALPp9CfVsPzqdBkPJ7mqz+o9vRN9V1pmCket/q8QLfRZE4T4naa3B36I8p3FvkbyncVyySZu32X7eseHsIztvjxTNcpBWrCz/KbLY+/OfFsp07zeQ7OSDTD59asIv+FoOc5DZf/mMXzi60g4HWx1P0joCKNX9+elJpuEAuvDFitoU03ZxaMG3Cl2QoUrw0kQmHxLMlqHTQ0LPqDQLWy+sTVmZq9oe55N8kHefSqovBidUtGIktVu7SJdCtgg76ho/84nIm7PFqMHEkeIqEZ5WM402YlxtHLQ8S6kAx8NR5ikUWxFlMcwXUjMr0Ku+7blleqKmZHs9e39Nf2lPoe912nkYz4hMoEAzoZWCS8K/CAjHitT9FiKWZXBp5t08gAX4W8RLGp8FfTLPG8hlZdoa6lSeB5HT3VuK7n0cbSuAFdEDnAG4ktnjfRU7N6hOXS5VT8DbGbU2O+ZcmkHplaxqP0Oj8am1+r3khM9TFl+pZ4vK08tgw90fDjyg69vtVkR/34cvqXEp9g190qXASpwhMrNudengQzVPr5ZGiB7fFX6p8ST+ep1B38P8CnKaV9utPwbYyae/oWPdVb6alX8DZEIrTmp2Ndu72h8vN3YEeh550kOb4uRuEuOJTsV9Xu9viPt92DRzyGZwCmYTCzZ/qxN3gWLBT6oa6jnw07RS4wLj6HpEB9PRdDoEE9Txv98wPEF0puUJ4m7bMAi0WL/pQcoBLE79ZsWi+1z5XpugElp1EhjbS1yVa0u9qA36XviqnBV5HyUJCjlBXQGQs3FTSmzVqThl2D7zjbYsWoqzcmAIF/nftvMnXZsRSxm0Bn64deqTVkP+qX6NcL/MEO/huZfFZWu2OITYe2pC9jS8pW2cBjM+JvI9JWtEN4HA04I1afIC4d4CR6+OBgligscvW7uUhRextkT6Ls+LjyPddxb0dB/l9VHQAAtZkLdJXVlcfPd29yIYGAgJCAgoDg+MoNICDCzQ2gN471hQpWbW8UJYCUh8ANUkcwPJIAuahj1SoViwkivhgfaOXmIeKDArWSACpqECjaBNCqrdalVOf3P9+X8DnTrunMWsNaWWff899n73323meffT4cJ2CCpuPhXzz3RYesCmNGlzmmtNP5t/4sFktcOP7K64bOu2nINRNnnXdt8bWTTTdzonG6m5Oc3iYtzTEmYNKc9Atm3VQyo3hmwoSc9ncYYzLMCaYuYIxjrGjTz6QF0sdNnFLcd/Bxlo4a+GcHy99NZGfnVi0M2IX9tfCimYniOTMnTu97+czpP+97/sSZ8ybONSHzP4u508GAUD9JcjAhK3188fyE6b4EuC82nQ5fqTnDijeXFk+6uWSGsT9yvR9nOnk3z5xUPD88NTFjembeTbOmTy++KXHzrJlz/+F8YtYtuZPnFBfnzpo5/eaZxbk3zSqZM7f4v/JrLq94/sQZt0y3LHOLc2/BO7mDzxt83pAf8E6eOO/mm2bNzD1nyPxzhoRvmTnFBO7B68f/Bf7RP7DWf/z6f/4XdAYHTjUmjeyZX2bM/vR0xywpzO4dKNvy6OXBqTnxRNoSnN1usTAT6kiAl66tvCxQvqLnhOCSgCn1wR1DA4DLGmPtAhXTf1IcXPpDeEBovAtPCVSse2tyEHV9ffD4UClBF741UJ5zSa7wUh9e6oRwYEipEbAmBo1Qg1ULcuLzjeMEFk2rne5HnNDt8xr+RioHFk+LDPIjgdDCRMNg4wQDS8ZdGvYjwdDCnPho46QFlkyr3eFH0kILB6XONk56YOmWL3P9SHpoYTLcyzihwNJxWXP9SCi0INHQzzjtAkv3HbrPj7TTmqHGaR9YOu32A36kfWjBoNTtxskIlB3b286PZMi214yTSXReKPAjmd5OcY3CEwy40x0913SwrvEjWdpMf+N0lGt2+ZFOUoJhmbgma5Ef6ewpAZl2rM6PnOAhOK38yDd+pIv04LQOuCb3Qj/SVQgW4IB9k+70I908Bzi45qFaP3Kip6djYOnX3d73I909qwO4pribH+nhhTorULbi8xF+JFtrusppZeNWXudHcjy/OYGyHtfO9iM9PQvQs+/eUj/Sy9MTDJSt7bvOj5wkPTalyqbd/qYfOVk+wDvpgbIhyz73I72VHjalyo9lZPqRPm0pVb7/5a5+5BStwQftA+VbHh3oR/p6Hs0IlK87Z7Af6SfbbEqVr+h3qR/p7+2UlOJMtmudHuC5xk0pi3g5OFCbIaBuSvmR06QEw0gcUsqP/IunBISU8iOne4ibUn7kDOnBaW5K+ZEzhWCBm1J+5CzPAW5K+ZGzPT1uSvmRXM9qQk1K+ZGwF2o3pfxInta0pZRFPL8N8vzW3qaUHxns2daRlDpxmR8ZImlY0ImU+uxpP3JOaKExEeN0JqVqd/uRoaEFyfB7xjmBlFr/uR8ZFlowr+HnxulCSl2U5keGhxYUJZbL1+X7f9nZj5wrj+JrkC3p/f3ICA/pTErNHepHzvMs6EhKtYz1IyO9/QQC5dPfmeBHRnkeJQ3HrZ7qRyJefJxA+dBRt/iRfA9BWo+9t/qRqCcNq795eIUfKThu9b6Oq/3IaM/qDoHyzYuf9CNjtIasYj9rx9X5kbHefroGypdFd/qR84UMsr6edvSgH7nA83VWoPyy9z71IzGtIXewesj67/1IoSzA6qxARWaHDD9yobfGBCqOze7iR/7VyzcnUPHpgGw/clGb3yr2/7mXH/mR57dgoGLn1QP8yMXSY0tYxZbcsB+5xLMtPVCxcdC5fuRSlaNeKmEV63YV+JHL2kpYxQPhC/zI5VqDR9sHKlY8cqkfGeedkoxAxW1Tr/IjV8g2W8Iqpl8/0Y9c6e3ULWFTWqfHe65pK2FtyARtxobaK2FtyNVSgmFdW0tYG/JjITbUS4dHO/iRa9pCTcMw0o9cqzWELU0lbKEfuU4W4E5DCTu01Y/8xLOaNdNu/9KP/NRbwy1ybFsfPxKXOwlBN0pYbIwfKQotLEqcKneWrXCK/cj1sg13UnTGNT3kR27wig7tR4/HX/UjEz1Hc8PtO9ToR270bKNQrd38Vz9y0/EDN/zqTD8ySWtsFMpzBpzsR4plm41C+bEueX5kshCiwLHa//IPdjpFiPV1+ZaVV/qRqdJjbStf9+0kP3KzZ1snStjsuX5kmueDbiph5X7kZ55HT6SEvfCAH5nurcGCoSc95UdmHLegx/J6PzLTs6A7Jey73/mRWaEFxhwyTg9K2Gu6sNqQW2RBzK7ZvOVPfmT28TVrl33nR+Z4a7IDFRecr9LShsyV1SOViRXDP+7qRxJeJlJaTnswx4+UeHlAacmZ+oPIzTteWjJ3DPQjtyo+bmk59kieH5nveYfS8unaEX7k515eU1r2X/iDaN92vLTsrIr5kX/TGnKH0rKl++V+5PbjpWXjB+P9yALZ9poynhJ2ox9Z6O3ULS1bW6dLHc83J7TWljZoEZC9f7upuBT7ocWOokDu5FBdVkb80BIgw2saZ/Me2e6HljqeDTRCW/YE/VAZq7wjxIvkYj9UDmTPUIAK89r9fqgCyAapMyXmgwN+aBnG23zsSY05L8sPLWfVvIaLlEJlW14f5odWANkc6kWVueKnfqgSKNU83gocl6+D1AYlgVoF9ti2wQ+tBLICQxSa8Xv80J1YaCNP3Vq7+WM/dJddFdGWy4e/EfJDdwPZLXNqc5I9/dC/A2lV+4wMx7FfF1o/NZjAHYmGYcETdy85uPXr4NmTR+y8sMfCb4+sCXYOXZRm0pvbmUznslmJWX2vmjhzbt+rfj7jxlnT5w4xVxZPKZk+cY4xHXljBwwto2ln2hubQ//bH1lOpzv4mtCZF7HyjIQaZB+yPFm5a3IJ+lzuj/u4KQ7oEannoh70rcy7dImp41ZvzRV0ofpldca2B1a3q75WHax6VR46etLo8aJnih4kFNmuemToOaGHgz4H/B+F0/KquVUbS8Oq1lRNqNpNNZZqIam0E9QWqgFUq6emTu2bGjW1ZGq+1GapoVLrpCZJ7ZAaH7U4ambUtqhB4RwXqOlQe6FGQi2DPlb8wHhd5LhxJMYvxI1bceOX9mrVJarrUhejrkBddlxrusB0VelSwjNjdNHoStHlgfHluhBU+lXkVc5VuFWiVYxVdlVgVUpVNFUeVQhV8lTcVMZUsFSaMP5GfTppNbZY1YKYb9f5J+YX60Tbo6szqsOoU6fjpXOkA8PJ0BFQrps7nFLHWeSYxXzx4asOn14cU+6YCscsc8xyxzzq3PGrB3sGtjuDzQ4n+KZjfu+YD2EMmF8GnJBDHt7BOckwHVq/Hbkf9Pg13n7TQ9ygLPfD3omml2Z6B/qYU8xpjlLZ/e4XXLjqwQf5DumYfzEnm07mpPnPzpk60IQDZXCETsqjJMafi9Y0jy0IFCVa8lFSFyjMXh2xREnDIhdq5TGvOMZJhu+Bj0MqoqWqQwF8w6JtBIgLMepQGRNNhvsVBDn5+SKqKx/Or2keWBAszJ6Rn5c6s0BjTnywO1GYPcJylDRE3CUtVWMKJENjMCd+siXoRKKWIy91QVRLNFoZIiRUHFaLlkitZNixPGAc2VnS8Gj0vxtsCbuXeGIwujyipKElihdGWCLYUnWxVqE1gbKQLL8rGk9kYfkGOzKxwxLVlfsZ2xUEjfkqWl3pFKSaTUFL1ZFosKQhVJAM70ZgiIlnZUpIRppAY+wdSXeJwuwno/jhHaRs428rQt6TAb9h4RHYHrIj+pZbQha1VP1BHD+OFiXeh72QiR3Sp53WwuVu3RwNGqcweyUc4dpgdeXVlogn+qGyLhIsSuwlWtOIx2pi8WV+kPDjl1E4dSyTlVE7kRN/CWGr86sr39XEe8Tza+T0j6aa0wqsDXJCPLHSjsF44jFLNMZ+g5YMG2DWp7HvnQTnO8l4lz18wWQT1h6OkosHjhPJ8MiCQF6qA47zCNxkiMtBeDyipOHpfHzZZAkrLxlegeVvIXdEPht9g4lUpLryRTheH8XEOiwO17a6Qk55EJdVi/cZS+SlNmPunny83MBEEMfuReGgKFE9SNr9lB8HAXCKiLzUen7sRVq9QtcAx27Wv8LEfu3wGTiOMvGgHdFSaomc+A3IgaOlqiDaGNuFp8OMdeLoA/EY6/sgGC0iGmPX85fH5BCpHc1u0pFzA5Pv5AdTzaWwVhMpdy/mMNFONT+ElqG1GDXFEi1VZ6Fyc4RTs58YzuQErOHv63wJZNsR0NGEf7nVwMRGJtbkFyX2RO2SZPgrnHkmKol2TnySDa5UaoTjGUvUNL+BlUS7MLsJY9I5Np8y8U00mAybAh2oxlg6y96KIiOTI7MR4zTeqSMnYl40oORqI4xZG6VcfYg1a6Ok6ofo2cTm32Ziu2z9PT/ew7R6JB2SvzaAfArXg3ZkYrElappvhPOgzs8YTHsHs8KMr8uSk/Ho86w/mWR+WJaojix0kWS4kPWDQPpI3QXs4E/k2BSWvJ5PAMsI7+r8eGK1HYn5U5ZoqdqEhg35yHgDvZuZeAsNh8TxLgLTWN+E8D7RQEtVe8pCB5maTjGrJZLfwnFLPsE7QgI2RJQieanmUZyqGoQMrW0Nr7lVoVaqULzctH4iSjHZ4c7kxIOSXICK/2CmMspBCroHyZjfoQNCq/JS4wSd7M6UNHTH7RCNsavcVSQh9iOnVZdZy+WQlzqBrTbVUG8+wuammprmFOX+xghuupsIdkLK3axbohy7O78x9jJoipRqybdLkuFMNJ+AEzK197Al5GHLUZS4Fle/DPu1qESGiMbYuci5nGXNEZwRA7k4Upg9jKUjR5GFA6xBEqrxn6n/LJSfhkqCSyhL2fooSxCty4AMdexWJqj/JQ1u/c+JuylPPr1pierKg7if+p8Mf41dDn4OkPJHlDXtQXejXYGm/ovAAENc9jLrEbb+iyhp2Gb/lNgsTvHjCH+r+TsiT62whI6Irf858Wtw2ftk+D+q/xX4oaZ5HSgxdIkjcshHER/RBhFeCmMTIc0twBE/wTCPMGaAytxPyL00rJvEX3M++52JA7bBvwB1dZoox5jnmLjLjmzqPktUV67C7BfzCd2v8WoK71chqzYfjzyF5spRSH8MZOTI6sqHNSq57sMABXWZ1NWw/8kYYri/xmiMsH8l7uZIPJGO/mLV7iYq2Qvob+JgZulCcXdjHqE0Kuqsc8Ov3dpbv41Q1MmDEZZA+0XszRQUJWZTAQh/dWWSiSyupfV2ZLOvWaIw+x2XIxk+zJ6UMX+2MtDzlSWwy8BmCH0HCiOsqebu3JhZTAy0I8EeYQlOARnjKLnGIegIHtBYo62MA8X6muahx4lk+EWl6lAWNeK2XHg/jOLlgbAcxW297MiERB9FmhqR91VP/4bxO0ifv+HC51RpRSBV1zWjS6iYEZmt7GsnizehYp/0PQHLUX7ca0fO31JLNMZmsWEysygxAeJ9VMT4e1PuHMb6l5nUkX1KqadURY2CwWgMbaomif3f6TEt0QaJMGttSFdhmr3tbrJEXup0jN4RwX9N8N9G5j1M4fhelUiX22jEjqalWaHzNZqytJEJ77bjYmbJ37ntWqq82043kIiceCPpzIlXhPJSDt7/BvVcOjx5CcFeuEJEvE4n/l02zgXfUqVSvhN1r3Ek8KLuwMLsTxC0yo74aIklihLFjAe05HwM2cOyQYwvi6M3kh/Hi73ZZaU7kQxfh271yrkKzVg4HJZMAmjUgVvCxCP4YZUdsfAJS3AcseUl3TWvIv0tDs4Olnyjlmg3RnUFVZ82KMrpCJG2thXSHf4lDv0WdI1Yj6K3O2t3YfYVEYTVYMzQ2tbAmKf9UeKQWqIxdhbLXlcHeoAYzCEwaxjRraAkw1Gk+6LEkcaQNUy8rdTSkq8w+Sz2QZQkVEGRFo1s+RVL5KX2McJhzDFc/hVODRE6ZCTDnSjQL7DdTkygRYTUisOzQ0tk2D7XUgmV6dKiUW+qVZiJE9RCiKiufA1eWkjFTJ1aY6wJR9K6FSU+4sf1uOgjJtAnojH2KH9NBLJGZ2wP1iirJONDRfZ52D9B1yo7csZKLdFSdb3LIXu1RHG3MpQMEqrRahEhteKwdmiJDHNlYKmEynRp0Wi+IVw8BXDELt3+r6F/u8rHK/Arf1NMfCBBG3HPIf7WM3FYqboajj/BkbQjG/qZJXLil2D2R5KRizEqCblI3+FO6GQkw2OxbqNy92qMeIofi/lbpzZwA+sfkrv2sO4X/Gim1JZK+reo+ikCvwXo505UV+4jXkeRcbe6r32wp9mg0GJEkP4EE0Nr9YrSCMdQSyTDX5BhHyl3byX3VnBzjCHDOyvve6LhFEk/FdajsI3B3C2SfgP6H0Cd7qYHdMyqLRFPPM+mXtfEq7B+wcSrWNhT230Vv5/D3yYmYsrsZ5D+Y8xVS3eDSvC1rC2Rug6wLIF1R36q+X6tXUSIdG4XYeFv3Yma5v2ofIna9WcJ+4w6GSTnT0dt+wJcdi3sOhXutcWSTZYoSuxCcFAcnxAhXVVuuO1jUWWWg1xv6629Ghtj58DvEfaVlhOPWIL8imHBF8A/Rul3itPNiEujHC5FJK+BnPi9VmlOfIMdSZydlshLHSaSnM2WqgA/vma9HgG8MEsausD+EnK6UGsq3Qk9ShtjmRzaL5W0AbalZ6uuR96xKqvEuFb5opG93meJxlgZcuwDcBoaUhF1TPaJqOZesdZe9Ii010ob0eYBEcZxw4YpIvQU1AcIPQ2wbQJIEFHzMGWPjn4lE3pOVtmRe6jGErps7atN16LOYDJ8CBs5lEpZnVKNVosIdUM8Ghi5OpLhDyB2ge5A7X4lSI1llxaNaKm0RFGiBKFwFGZPYP1u/i5got413X20nsNfZVTXbWH2Nk7wRvUW27CpTLfV3SS5R7RBIsxXNP66e2wuuAQdpJzqI9ogtZI0GuQkd7eIkoaTFOz3kXo6AU/DKr7ktFSdxM5G0vqMYSKqC3UK6sYS6OV2ZO+rLKF2trpyjPL4WZaMJjd+gw8L1Lo/AXGGOrR1bPEM0mgNOXamJlbBehadzz12JB1vt4SKU078NHFcB2s/llyHjJwCSt51uNizmdGYP7BvpQKk24VocxBD7C4tUdPMqaCDswRbuBAz9OidgUyaBN0weaksPgspWhwCY9Zbws1XO/Ei9qhFS5FGWQUIS7H2Y+XCi8z8EXQDE8066OuIcgvKV9vRShehV0Fj7ICWXAOxl78LMWi7knQY6mqJ8DC4nvh7vZfeSyqyet5Sh0SwNz4ecvI8Ai6De952V4rgVsjHT7ssgWHbgcaR+RuZeDZCbH+N2uaaZLjUjjj7R5YozO7H2V+s1+JnnIt+LNlMnebJLHuS4RA7vYcKfLGyyvO3TG4jdIrtrlSc1WraK1ulk49OZNov7MhEtSWS4efYO4cTO1n7F3TuwKnU5JaqPdg8Ahl7kD4lal5KV9rq5orpe9lwS6BXdusR/grC3os0xu5iXKznzSjUvYmJGntL4CjK0qVsYDGTP1OTt46JMtQewtN36mB2YfP3Y9i5uOlXqplxbFhDZBbDVSUZvwJVb/AkVj6me1FZ8ThcW1jytGTouD7L5DbMtm+Dbfig1kXyUrvtbEkDyaC8qWn+lLX32hGO2ZagssF5UMVlCMTbmHwaXL9VIpdi+y6tXYvtn4AcJkTHNJGDVfqkWYj0DOVtAouyOE+/sCMTay2htI0nOuiAb2NnGWTPe+yOel9deRjiO2zXrXNE2/0eve9i8vcs2aSvIpqwOaaM8ghdrhz131qCXbzK6jhZ8xILOyj7NoBM5Sm4monKkbyw1IgoeG40FddFUPcpyx6whPuS26Tb/CWkNbHJzeyvg47wNow8nR/b4LhIXwXk12VywRusLcOuetAlSsMXiGcpP57EUQt1/Nbg4Ntgvx+u+ZpI4u0SfpRj2lzJmA4xC/Yr+ZusiRGw61o5naU/0vXeE73n8dcTO052J4xp5lCcizvr5YAJ2HEfgXI3ZR6zmfsg+4jXo/IWS+i9w4eSeti7oGpkPX0O2d+7HoGPs11Tj6+IcV0dOzwVDTfUwZoLcXddPJEfbal6vg53XcbEu3W6Q4sSn9cRsSVYll6v0qyRJZss0Rh7E+t+X0dOH8Ap99RpJIC1lJQDCNuh5/4+S7BmL9B6js1b0bzUfN3qbyBExeBFnLBFt/q6KBdlRN+pNBLjayyRau7P7norbh9g/Mp8940X1EnR5+rRrB+LnKQ70RjbxLLVcO7VxHvcQP/M9+t4wvt+rQ/yamr0BPa6nL2Y/AWR2ccWDqshOnicIB1VpTq4lVOE0o880dN/PW4NctsE6nHrV0gZVK/vPnzAqSfp6lAYZ8KNou5nUTST+kgtQgmal/pM3mtgC52Ix95oS9W5uhYOwjERMw5i/Up3oqXqcf72ArwcRbyW7ObHK4y0CP/cR2q1i/pIzfcdcfTBBetZ38fVIsKYSVH3I/VIqR2NwC7IuQHVf3Y/Ust0adFortK+nkUMb3kR5IchP2b7iT6CZrgEB5gm2LiEugi+VyaOLxdhHrLJr+uG/y5ya0IEbyteIwrYaDPIOQTwGMAZqlL6LHcKgVFn2klfsbsx8Q2b7EbYtupUd2P9/aRIJxqNidpXJkR3OAyZwXVXlPgTLhicr6uDyhAhTWpg71+bal5lRxw+1xLyIjVV+dsR1tNJyHeI5DMK6/1sLYTnypk8X9fdEFx5fpT45kN0AynC+4fzyZZShDwD+yo7YuGrltCnQl2DBOtzWCdj4efs8nm9nj61BKZ+BOta2N5B/wNKBZU1narfMFmhArSO4CxC3T12xCGTLKEmN9V8twL9FarWMPESJ6xW2TOHC+1dVM7BB9+6EznxznhnE5y91bl9Q9TPpssZjrah+qQ1G/YIHnYjpZfmr1HDf+DpuSoCIVh1inivwPheSMuHt4te+WdgSXtidgZRPaYQnYG9H4NGkLpbIRqHHt0Ls/nbpG0uB9G98LAd2ZUuQ/VctXC8oH1vxwHqpXcj9A35/UMmGuA6xPihlhyG+ASOw/yhVoS+2+v1FU9gmLzaGOtFIr0BgOnxxAtIH4il7uZMGe8qtQzkt76q3UUQq/TOeIR1T8ruF7FoM7yvMu6UVTvRtR8j3oaDt3RRogmv/I2z2AQXHaWInPgJpKjOc7Yy+nd4pzdW1SKjn9z1NGsH0nOusiPnsNwS/PcCW4VDtw9VlMt8LHZ318QQEH0H0Zim2rWSO5Ia6RLd2eLvsJ21FHvWhBEWYRym+M3BZELKW1YjjnzZEiUNexnhyEv9hT2EMchhsr9kZPCjBxHWyKZE6D9A9J8hjbE/ytWOfa3mxD/D0hoFtIldVrEPfWQq1QeKG9HPtSKC4pjP66MjXvEI/O06nNGo8OSlMsg+ynIyvIFUBjVmqkvQ4EUsxHMTmRAtVXch00jLPS6hG8RCrXLMEgpPPPEoVnHgOeSWKMyO4cDbInglkz0P5Djs5I6iv9VlJd8ZswyHjtWBHw7rWMV8BHvsx7YuQVd7bf4G4n2Ateottmrtv8PxNEfqUTsyUWMJxV5OYKIJYerVPkbOCRL6GarO5ofGce6EWhFxpJqXuR5tjP2SVNtONv9aalU8HwN92I5UkYXHCRU7/ivoYUtQcZ63hD4g1jR/oNOjYB1C1wes+Vw14RAmfg96iLDyVUJEMqyHfRMTJK7Wq8yzRZaQWrqtlafJ8Do74tV7LZEML8UqOAqzb4a1D6kxAZtzlJ5jUNuV9NR/kGboS8Vj3BQZUvcECZtDbf+U2jRAOdYTljzWXoHQ4UrLpXgjwsFZZ0cmtlsiL3WIkcStaf6OJWFkhLDyVHGov80mAfRgy2yd+AvWpSFnn9z8Ndvehob3sfQVtY/vI6w+yhkz7H0T5mYi7BH58EROwHKccSL2X+JOcOvglI5M1OrREuTADOOCaEFYpd5VO1DVv7Y170xc/xWo/3b4az5R2kKGtVOGnwY7L9rCbNczxM3l0XP2NGzzuNuwNu629eIx5j8B(/figma)--&gt;&quot;&gt;&lt;/span&gt;&lt;span style=&quot;&quot;&gt;/index.html&lt;br&gt;/articles/index.html&lt;br&gt;/articles/most-populer/index.html&lt;br&gt;/articles/most-populer/web-server-scraper-application/index.html&lt;br&gt;/favicon.png&lt;/span&gt;" style="text;whiteSpace=wrap;html=1;labelBackgroundColor=default;align=left;fillColor=#fa6800;strokeColor=#C73500;fontColor=default;" parent="1" vertex="1">
                    <mxGeometry x="470" y="40" width="360" height="100" as="geometry"/>
                </mxCell>
                <mxCell id="49" style="edgeStyle=orthogonalEdgeStyle;curved=1;html=1;entryX=0.654;entryY=0;entryDx=0;entryDy=0;entryPerimeter=0;strokeColor=#80FF00;" parent="1" source="44" target="48" edge="1">
                    <mxGeometry relative="1" as="geometry"/>
                </mxCell>
                <mxCell id="44" value="queue&lt;br&gt;add(url)" style="outlineConnect=0;dashed=0;verticalLabelPosition=bottom;verticalAlign=top;align=center;html=1;shape=mxgraph.aws3.queue;fillColor=#D9A741;gradientColor=none;labelBackgroundColor=#FF8000;fontColor=#FFFFFF;" parent="1" vertex="1">
                    <mxGeometry x="260" y="242" width="73.5" height="48" as="geometry"/>
                </mxCell>
                <mxCell id="98" style="edgeStyle=orthogonalEdgeStyle;html=1;entryX=0;entryY=0.5;entryDx=0;entryDy=0;entryPerimeter=0;strokeColor=#80FF00;fontColor=default;curved=1;" parent="1" source="45" target="44" edge="1">
                    <mxGeometry relative="1" as="geometry"/>
                </mxCell>
                <mxCell id="45" value="www.example.com/articles/most-populer/web-server-scraper-application" style="html=1;strokeWidth=1;shadow=0;dashed=0;shape=mxgraph.ios7ui.url;fillColor=#f5f5f5;strokeColor=#666666;buttonText=;strokeColor2=#222222;fontColor=#333333;fontSize=8;spacingTop=2;align=center;labelBackgroundColor=none;" parent="1" vertex="1">
                    <mxGeometry x="80" y="190" width="320" height="30" as="geometry"/>
                </mxCell>
                <mxCell id="52" style="edgeStyle=orthogonalEdgeStyle;curved=1;html=1;entryX=0;entryY=0.5;entryDx=0;entryDy=0;entryPerimeter=0;strokeColor=#80FF00;" parent="1" source="48" target="50" edge="1">
                    <mxGeometry relative="1" as="geometry"/>
                </mxCell>
                <mxCell id="65" style="edgeStyle=orthogonalEdgeStyle;curved=1;html=1;fontColor=default;strokeColor=#80FF00;" parent="1" source="48" target="64" edge="1">
                    <mxGeometry relative="1" as="geometry"/>
                </mxCell>
                <mxCell id="48" value="scheduler&lt;br&gt;(queue)" style="aspect=fixed;html=1;points=[];align=center;image;fontSize=12;image=img/lib/azure2/general/Scheduler.svg;labelBackgroundColor=#FF8000;fontColor=#FFFFFF;" parent="1" vertex="1">
                    <mxGeometry x="265.5" y="360" width="68" height="68" as="geometry"/>
                </mxCell>
                <mxCell id="54" style="edgeStyle=orthogonalEdgeStyle;curved=1;html=1;strokeColor=#80FF00;startArrow=diamond;startFill=1;" parent="1" source="50" target="53" edge="1">
                    <mxGeometry relative="1" as="geometry">
                        <Array as="points">
                            <mxPoint x="81" y="550"/>
                            <mxPoint x="305" y="550"/>
                        </Array>
                    </mxGeometry>
                </mxCell>
                <mxCell id="50" value="downloader&lt;br&gt;(queue)" style="html=1;verticalLabelPosition=bottom;align=center;labelBackgroundColor=#FF8000;verticalAlign=top;strokeWidth=2;strokeColor=#0080F0;shadow=0;dashed=0;shape=mxgraph.ios7.icons.down;fontColor=#FFFFFF;" parent="1" vertex="1">
                    <mxGeometry x="70" y="514.25" width="21" height="25.5" as="geometry"/>
                </mxCell>
                <mxCell id="57" style="edgeStyle=orthogonalEdgeStyle;curved=1;html=1;strokeColor=#80FF00;startArrow=diamond;startFill=1;" parent="1" source="51" target="56" edge="1">
                    <mxGeometry relative="1" as="geometry"/>
                </mxCell>
                <mxCell id="67" style="edgeStyle=orthogonalEdgeStyle;curved=1;html=1;fontColor=default;strokeColor=#80FF00;entryX=0.994;entryY=0.224;entryDx=0;entryDy=0;entryPerimeter=0;startArrow=diamond;startFill=1;" parent="1" source="51" target="66" edge="1">
                    <mxGeometry relative="1" as="geometry">
                        <Array as="points">
                            <mxPoint x="560" y="403"/>
                        </Array>
                    </mxGeometry>
                </mxCell>
                <mxCell id="51" value="content&lt;br&gt;(document)" style="sketch=0;pointerEvents=1;shadow=0;dashed=0;html=1;strokeColor=none;fillColor=#505050;labelPosition=center;verticalLabelPosition=bottom;verticalAlign=top;outlineConnect=0;align=center;shape=mxgraph.office.concepts.web_page;labelBackgroundColor=#FF8000;fontColor=#FFFFFF;" parent="1" vertex="1">
                    <mxGeometry x="520" y="505" width="50" height="54" as="geometry"/>
                </mxCell>
                <mxCell id="55" style="edgeStyle=orthogonalEdgeStyle;curved=1;html=1;strokeColor=#80FF00;startArrow=diamond;startFill=1;" parent="1" source="53" target="51" edge="1">
                    <mxGeometry relative="1" as="geometry">
                        <Array as="points">
                            <mxPoint x="500" y="646"/>
                            <mxPoint x="500" y="532"/>
                        </Array>
                    </mxGeometry>
                </mxCell>
                <mxCell id="53" value="www.example.com/articles/most-populer/web-server-scraper-application" style="html=1;strokeWidth=1;shadow=0;dashed=0;shape=mxgraph.ios7ui.url;fillColor=#f5f5f5;strokeColor=default;buttonText=;strokeColor2=#222222;fontColor=default;fontSize=8;spacingTop=2;align=center;labelBackgroundColor=none;" parent="1" vertex="1">
                    <mxGeometry x="140" y="632.5" width="330" height="27.5" as="geometry"/>
                </mxCell>
                <mxCell id="95" style="edgeStyle=orthogonalEdgeStyle;curved=1;html=1;fontColor=default;strokeColor=#80FF00;startArrow=diamond;startFill=1;" parent="1" source="56" target="41" edge="1">
                    <mxGeometry relative="1" as="geometry">
                        <Array as="points">
                            <mxPoint x="770" y="497"/>
                            <mxPoint x="770" y="300"/>
                            <mxPoint x="740" y="300"/>
                        </Array>
                    </mxGeometry>
                </mxCell>
                <mxCell id="56" value="file-recorder" style="sketch=0;outlineConnect=0;fontColor=#FFFFFF;gradientColor=none;fillColor=#3F8624;strokeColor=none;dashed=0;verticalLabelPosition=bottom;verticalAlign=top;align=center;html=1;fontSize=12;fontStyle=0;aspect=fixed;pointerEvents=1;shape=mxgraph.aws4.file_system;labelBackgroundColor=#FF8000;" parent="1" vertex="1">
                    <mxGeometry x="680" y="460" width="78" height="73" as="geometry"/>
                </mxCell>
                <mxCell id="76" style="edgeStyle=orthogonalEdgeStyle;curved=1;html=1;fontColor=default;dashed=1;strokeColor=#80FF00;startArrow=diamond;startFill=1;" parent="1" source="64" target="50" edge="1">
                    <mxGeometry relative="1" as="geometry">
                        <Array as="points">
                            <mxPoint x="226" y="500"/>
                            <mxPoint x="226" y="527"/>
                        </Array>
                    </mxGeometry>
                </mxCell>
                <mxCell id="64" value="&lt;span style=&quot;color: rgb(240, 240, 240); font-family: Helvetica; font-size: 12px; font-style: normal; font-variant-ligatures: normal; font-variant-caps: normal; font-weight: 400; letter-spacing: normal; orphans: 2; text-align: center; text-indent: 0px; text-transform: none; widows: 2; word-spacing: 0px; -webkit-text-stroke-width: 0px; text-decoration-thickness: initial; text-decoration-style: initial; text-decoration-color: initial; float: none; display: inline !important;&quot;&gt;timer&lt;br&gt;(start after 30 seconds)&lt;/span&gt;" style="points=[[0.145,0.145,0],[0.5,0,0],[0.855,0.145,0],[1,0.5,0],[0.855,0.855,0],[0.5,1,0],[0.145,0.855,0],[0,0.5,0]];shape=mxgraph.bpmn.event;html=1;verticalLabelPosition=bottom;labelBackgroundColor=#FF8000;verticalAlign=top;align=center;perimeter=ellipsePerimeter;outlineConnect=0;aspect=fixed;outline=boundNonint;symbol=timer;fontColor=default;" parent="1" vertex="1">
                    <mxGeometry x="360" y="489.75" width="50" height="50" as="geometry"/>
                </mxCell>
                <mxCell id="89" style="edgeStyle=orthogonalEdgeStyle;curved=1;html=1;fontColor=default;strokeColor=#80FF00;startArrow=diamond;startFill=1;" parent="1" source="66" edge="1">
                    <mxGeometry relative="1" as="geometry">
                        <Array as="points">
                            <mxPoint x="515" y="351"/>
                            <mxPoint x="670" y="351"/>
                            <mxPoint x="670" y="310"/>
                        </Array>
                        <mxPoint x="630" y="311" as="targetPoint"/>
                    </mxGeometry>
                </mxCell>
                <mxCell id="90" style="edgeStyle=orthogonalEdgeStyle;curved=1;html=1;fontColor=default;strokeColor=#80FF00;startArrow=diamond;startFill=1;" parent="1" source="66" target="84" edge="1">
                    <mxGeometry relative="1" as="geometry">
                        <Array as="points">
                            <mxPoint x="515" y="341"/>
                            <mxPoint x="680" y="341"/>
                            <mxPoint x="680" y="272"/>
                        </Array>
                        <mxPoint x="640" y="272" as="targetPoint"/>
                    </mxGeometry>
                </mxCell>
                <mxCell id="91" style="edgeStyle=orthogonalEdgeStyle;curved=1;html=1;fontColor=default;strokeColor=#80FF00;startArrow=diamond;startFill=1;" parent="1" source="66" target="83" edge="1">
                    <mxGeometry relative="1" as="geometry">
                        <Array as="points">
                            <mxPoint x="515" y="331"/>
                            <mxPoint x="710" y="331"/>
                            <mxPoint x="710" y="250"/>
                        </Array>
                    </mxGeometry>
                </mxCell>
                <mxCell id="66" value="finder&lt;br&gt;(content)" style="verticalLabelPosition=bottom;verticalAlign=top;html=1;shadow=0;dashed=0;strokeWidth=1;shape=mxgraph.ios.iSortFindIcon;fillColor=#8BbEff;fillColor2=#135Ec8;strokeColor=#ffffff;sketch=0;labelBackgroundColor=#FF8000;fontColor=#FFFFFF;" parent="1" vertex="1">
                    <mxGeometry x="508" y="400" width="15" height="15" as="geometry"/>
                </mxCell>
                <mxCell id="92" style="edgeStyle=orthogonalEdgeStyle;curved=1;html=1;fontColor=default;strokeColor=#80FF00;" parent="1" source="83" target="44" edge="1">
                    <mxGeometry relative="1" as="geometry"/>
                </mxCell>
                <mxCell id="83" value="www.example.com/" style="html=1;strokeWidth=1;shadow=0;dashed=0;shape=mxgraph.ios7ui.url;fillColor=#f5f5f5;strokeColor=#666666;buttonText=;strokeColor2=#222222;fontColor=#333333;fontSize=8;spacingTop=2;align=center;labelBackgroundColor=none;" parent="1" vertex="1">
                    <mxGeometry x="437" y="240" width="193" height="22.5" as="geometry"/>
                </mxCell>
                <mxCell id="93" style="edgeStyle=orthogonalEdgeStyle;curved=1;html=1;fontColor=default;strokeColor=#80FF00;" parent="1" source="84" target="44" edge="1">
                    <mxGeometry relative="1" as="geometry"/>
                </mxCell>
                <mxCell id="84" value="www.example.com/articles" style="html=1;strokeWidth=1;shadow=0;dashed=0;shape=mxgraph.ios7ui.url;fillColor=#f5f5f5;strokeColor=#666666;buttonText=;strokeColor2=#222222;fontColor=#333333;fontSize=8;spacingTop=2;align=center;labelBackgroundColor=none;" parent="1" vertex="1">
                    <mxGeometry x="437" y="270" width="193" height="20" as="geometry"/>
                </mxCell>
                <mxCell id="94" style="edgeStyle=orthogonalEdgeStyle;curved=1;html=1;entryX=1;entryY=0.5;entryDx=0;entryDy=0;entryPerimeter=0;fontColor=default;strokeColor=#80FF00;" parent="1" source="85" target="44" edge="1">
                    <mxGeometry relative="1" as="geometry"/>
                </mxCell>
                <mxCell id="85" value="www.example.com/articles/most-populer" style="html=1;strokeWidth=1;shadow=0;dashed=0;shape=mxgraph.ios7ui.url;fillColor=#f5f5f5;strokeColor=#666666;buttonText=;strokeColor2=#222222;fontColor=#333333;fontSize=8;spacingTop=2;align=center;labelBackgroundColor=none;" parent="1" vertex="1">
                    <mxGeometry x="437" y="300" width="193" height="22.5" as="geometry"/>
                </mxCell>
                <mxCell id="96" value="scrapper" style="shape=note;whiteSpace=wrap;html=1;backgroundOutline=1;fontColor=#000000;darkOpacity=0.05;fillColor=#FFF9B2;strokeColor=none;fillStyle=solid;direction=west;gradientDirection=north;gradientColor=#FFF2A1;shadow=1;size=20;pointerEvents=1;labelBackgroundColor=none;" parent="1" vertex="1">
                    <mxGeometry x="105" y="20" width="140" height="160" as="geometry"/>
                </mxCell>
            </root>
        </mxGraphModel>
    </diagram>
</mxfile>